<?xml version="1.0" encoding="utf-8"?>
<!-- Generator: Adobe Illustrator 28.3.0, SVG Export Plug-In . SVG Version: 6.00 Build 0)  -->
<svg version="1.1" id="Layer_1" xmlns="http://www.w3.org/2000/svg" xmlns:xlink="http://www.w3.org/1999/xlink" x="0px" y="0px"
	 viewBox="0 0 320 320" style="enable-background:new 0 0 320 320;" xml:space="preserve">
<style type="text/css">
	.st0{fill-rule:evenodd;clip-rule:evenodd;fill:#8533AD;}
	.st1{fill-rule:evenodd;clip-rule:evenodd;fill:#DDDDDD;}
	.st2{fill-rule:evenodd;clip-rule:evenodd;fill:#6A298A;}
	.st3{fill:#F7B1CB;}
	.st4{fill:#EF6497;}
	.st5{fill:#FFFFFF;}
</style>
<g>
	<path class="st0" d="M164.8,28.4c0-14.6-11.9-26.4-26.5-26.4L38.5,2c-1.3,0-2.5,0.1-3.7,0.3l-6.3,0C13.8,2.3,2,14.2,2,28.8
		l0.1,262.6c0,14.6,11.9,26.4,26.5,26.4h109.9c14.6,0,26.4-12.2,26.4-26.8L164.8,28.4z"/>
	<path class="st1" d="M136.4,13.8l-9.8,0c-1.6,0-2.9,1.3-2.9,2.9l0,4.1c0,3.1-2.5,5.7-5.7,5.7l-59.6,0c-3.1,0-5.7-2.5-5.7-5.7l0-4.1
		c0-1.6-1.3-2.9-2.9-2.9l-9.8,0c-10.8,0-19.5,8.8-19.5,19.5l0.1,252.9c0,10.8,8.8,19.5,19.5,19.5l96.2,0c10.8,0,19.5-8.8,19.5-19.5
		l-0.1-252.9C155.9,22.5,147.2,13.8,136.4,13.8z"/>
	<path class="st2" d="M12,28.5l0.1,262.6c0,14.6,11.9,26.4,26.5,26.4l-10,0.3C14,317.8,2.1,306,2.1,291.4L2,28.8
		C2,14.2,13.8,2.3,28.4,2.3l6.3,0C21.9,4.1,12,15.1,12,28.5z M103.1,16.4l-2.1,0c-0.4,0-0.8,0.3-0.8,0.8s0.3,0.8,0.8,0.8l2.1,0
		c0.4,0,0.8-0.3,0.8-0.8C103.9,16.7,103.5,16.4,103.1,16.4z M96.4,16.4l-16.8,0c-0.4,0-0.8,0.3-0.8,0.8c0,0.4,0.3,0.8,0.8,0.8
		l16.8,0c0.4,0,0.8-0.3,0.8-0.8C97.1,16.7,96.8,16.4,96.4,16.4z"/>
</g>
<path class="st3" d="M228.1,285.7h-7.7V278c0-1.3-1.1-2.2-2.4-2.2h-2.3c-1.3,0-2.4,0.8-2.4,2.2v7.7h-7.7c-1.3,0-2.2,1.1-2.2,2.4v2.3
	c0,1.3,0.8,2.4,2.2,2.4h7.7v7.7c0,1.3,1.1,2.2,2.4,2.2h2.3c1.3,0,2.4-0.8,2.4-2.2v-7.7h7.7c1.3,0,2.2-1.1,2.2-2.4v-2.3
	C230.2,286.8,229.4,285.7,228.1,285.7z"/>
<path class="st3" d="M309.8,120.7h-12.9v-12.9c0-2.2-1.8-3.6-4.1-3.6h-3.9c-2.2,0-4.1,1.4-4.1,3.6v12.9h-12.9
	c-2.2,0-3.6,1.8-3.6,4.1v3.9c0,2.2,1.4,4.1,3.6,4.1h12.9v12.9c0,2.2,1.8,3.6,4.1,3.6h3.9c2.2,0,4.1-1.4,4.1-3.6v-12.9h12.9
	c2.2,0,3.6-1.8,3.6-4.1v-3.9C313.5,122.6,312,120.7,309.8,120.7z"/>
<path class="st3" d="M210.9,35.8h-16.8V19.1c0-2.9-2.4-4.7-5.3-4.7h-5c-2.9,0-5.3,1.8-5.3,4.7v16.8h-16.8c-2.9,0-4.7,2.4-4.7,5.3v5
	c0,2.9,1.8,5.3,4.7,5.3h16.8v16.8c0,2.9,2.4,4.7,5.3,4.7h5c2.9,0,5.3-1.8,5.3-4.7V51.4h16.8c2.9,0,4.7-2.4,4.7-5.3v-5
	C215.6,38.2,213.8,35.8,210.9,35.8z"/>
<g>
	<path class="st4" d="M153.9,99.5l-39.7-5.1c-5.1-0.7-8.8,4.8-6.2,9.2l19.7,34.9L153.9,99.5z"/>
	<g>
		<circle class="st4" cx="204.2" cy="161.2" r="85.3"/>
	</g>
</g>
<g>
	<g>
		<path class="st5" d="M178.8,172.5c-2.6,0-4.5-1.8-4.5-4.5v-4.8c0-2.6,1.9-4.5,4.5-4.5h16.1c3.5,0,6.3,2.8,6.3,6.3v20.3
			c0,1.9-0.6,3.6-2.6,5c-3.1,2.2-11.8,5.5-24.3,5.5c-20.8,0-32.5-12.7-32.5-31.7c0-19.5,15.8-33.1,34.2-33.1
			c9.1,0,15.3,1.5,21.6,5.7c2.6,1.7,3.9,4.5,1.9,7.4l-2.1,3.2c-1.7,2.7-4.5,3.6-7.4,2.2c-4.4-2.2-8.5-3.3-12.5-3.3
			c-10.8,0-18.2,5.3-18.2,18.2c0,11.2,6.3,17.3,17.1,17.3c3.1,0,5-0.1,8.1-1v-8.2L178.8,172.5L178.8,172.5z"/>
		<path class="st5" d="M210.4,139c0-3.5,1.9-5.5,4.9-6.4c5.1-1.4,13.1-1.7,18.9-1.7c18,0,27.9,5.8,27.9,16.7c0,4-1.5,8-4.6,10.5
			c-1.4,1.2-3.1,2.2-5,2.8v0.1c9.2,2.4,13.6,8.1,13.6,15.7c0,14.5-13.7,18.8-28.3,18.8c-8.4,0-15.7-0.3-21.2-0.6
			c-3.5-0.4-6.2-2.7-6.2-6.2L210.4,139L210.4,139z M234.2,144c-1.4,0-3.3,0-6.3,0.4v12.7h4.1c8.1,0,13.2-1.3,13.2-7.1
			C245.2,145.4,240.9,144,234.2,144z M227.9,169.4V182c3,0.4,4.9,0.4,6.3,0.4c6.8,0,10.5-0.9,12.5-2.6c1.2-1.2,1.8-2.7,1.8-4.6
			c0-4-3.6-5.8-9.4-5.8L227.9,169.4L227.9,169.4z"/>
	</g>
</g>
<path class="st3" d="M95.7,199.2H84.8v-10.9c0-1.9-1.5-3.1-3.4-3.1h-3.3c-1.9,0-3.4,1.2-3.4,3.1v10.9h-11c-1.9,0-3.1,1.5-3.1,3.4
	v3.3c0,1.9,1.2,3.4,3.1,3.4h10.9v10.9c0,1.9,1.5,3.1,3.4,3.1h3.3c1.9,0,3.4-1.2,3.4-3.1v-10.9h10.9c1.9,0,3.1-1.5,3.1-3.4v-3.3
	C98.8,200.7,97.6,199.2,95.7,199.2z"/>
</svg>
