<?xml version="1.0" encoding="UTF-8"?>
<svg id="Layer_1" xmlns="http://www.w3.org/2000/svg" xmlns:xlink="http://www.w3.org/1999/xlink" version="1.1" viewBox="0 0 320 320">
  <!-- Generator: Adobe Illustrator 30.0.0, SVG Export Plug-In . SVG Version: 2.1.1 Build 123)  -->
  <defs>
    <style>
      .st0 {
        fill: none;
      }

      .st1 {
        fill: #8620b9;
      }

      .st2 {
        fill: #a943dc;
      }

      .st3 {
        fill: #9731ca;
      }

      .st4 {
        fill: #3f005e;
      }

      .st5 {
        fill: #b953ec;
      }

      .st6 {
        fill: #720ca5;
      }

      .st7 {
        fill: #8721ba;
      }

      .st8 {
        fill: #4c0072;
      }

      .st9 {
        fill: #8c26bf;
      }

      .st10 {
        fill: #3a0058;
      }

      .st11 {
        fill: #4e0075;
      }

      .st12 {
        fill: #b14be4;
      }

      .st13 {
        fill: #7f19b2;
      }

      .st14 {
        fill: #380054;
      }

      .st15 {
        fill: #47006b;
      }

      .st16 {
        fill: #a53fd8;
      }

      .st17 {
        fill: #440067;
      }

      .st18 {
        fill: #3a0057;
      }

      .st19 {
        fill: #560081;
      }

      .st20 {
        fill: #390056;
      }

      .st21 {
        fill: #640096;
      }

      .st22 {
        fill: #8d27c0;
      }

      .st23 {
        fill: #400060;
      }

      .st24 {
        fill: #7b15ae;
      }

      .st25 {
        fill: #650097;
      }

      .st26 {
        fill: #b54fe8;
      }

      .st27 {
        fill: #9e38d1;
      }

      .st28 {
        fill: #a4d;
      }

      .st29 {
        fill: #952fc8;
      }

      .st30 {
        fill: #630095;
      }

      .st31 {
        fill: #710ba4;
      }

      .st32 {
        fill: #a23cd5;
      }

      .st33 {
        fill: #a640d9;
      }

      .st34 {
        fill: #7610a9;
      }

      .st35 {
        fill: #54007e;
      }

      .st36 {
        fill: #922cc5;
      }

      .st37 {
        fill: #380055;
      }

      .st38 {
        fill: #b44ee7;
      }

      .st39 {
        fill: #550080;
      }

      .st40 {
        fill: #4a0070;
      }

      .st41 {
        fill: #430066;
      }

      .st42 {
        fill: #52007b;
      }

      .st43 {
        fill: #3d005b;
      }

      .st44 {
        fill: #430065;
      }

      .st45 {
        fill: #510079;
      }

      .st46 {
        fill: #82b;
      }

      .st47 {
        fill: #7913ac;
      }

      .st48 {
        fill: #3d005c;
      }

      .st49 {
        fill: #8b25be;
      }

      .st50 {
        fill: #7a14ad;
      }

      .st51 {
        fill: #5d008b;
      }

      .st52 {
        fill: #b5e;
      }

      .st53 {
        fill: #4a006f;
      }

      .st54 {
        fill: #3e005d;
      }

      .st55 {
        fill: #5f008e;
      }

      .st56 {
        fill: #8533ad;
      }

      .st56, .st57, .st58 {
        fill-rule: evenodd;
      }

      .st59 {
        fill: #650098;
      }

      .st60 {
        fill: #700aa3;
      }

      .st61 {
        fill: #730da6;
      }

      .st62 {
        fill: #6c069f;
      }

      .st63 {
        fill: #9d37d0;
      }

      .st64 {
        fill: #630094;
      }

      .st65 {
        fill: #610092;
      }

      .st66 {
        fill: #a741da;
      }

      .st67 {
        fill: #750fa8;
      }

      .st68 {
        fill: #3c005a;
      }

      .st69 {
        fill: #4c0073;
      }

      .st70 {
        fill: #7812ab;
      }

      .st71 {
        fill: #5a0087;
      }

      .st72 {
        fill: #570083;
      }

      .st73 {
        fill: #67019a;
      }

      .st74 {
        fill: #942ec7;
      }

      .st75 {
        fill: #851fb8;
      }

      .st76 {
        fill: #a842db;
      }

      .st77 {
        fill: #740ea7;
      }

      .st78 {
        fill: #3f005f;
      }

      .st79 {
        fill: #8e28c1;
      }

      .st80 {
        fill: #600090;
      }

      .st81 {
        fill: #9832cb;
      }

      .st82 {
        fill: #51007a;
      }

      .st83 {
        fill: #370053;
      }

      .st84 {
        fill: #902ac3;
      }

      .st85 {
        fill: #811bb4;
      }

      .st86 {
        fill: #a03ad3;
      }

      .st87 {
        fill: #6f09a2;
      }

      .st88 {
        fill: #609;
      }

      .st89 {
        fill: #71a;
      }

      .st90 {
        fill: #5c008a;
      }

      .st91 {
        fill: #fff;
      }

      .st92 {
        fill: #b852eb;
      }

      .st93 {
        fill: #841eb7;
      }

      .st94 {
        fill: #ac46df;
      }

      .st95 {
        fill: #a43ed7;
      }

      .st96 {
        fill: #5b0089;
      }

      .st97 {
        fill: #bc56ef;
      }

      .st98 {
        fill: #9f39d2;
      }

      .st99 {
        fill: #580084;
      }

      .st100 {
        fill: #821cb5;
      }

      .st101 {
        fill: #4d0074;
      }

      .st102 {
        fill: #b751ea;
      }

      .st103 {
        fill: #420064;
      }

      .st104 {
        fill: #7d17b0;
      }

      .st105 {
        fill: #912bc4;
      }

      .st106 {
        fill: #6b059e;
      }

      .st107 {
        fill: #3b0059;
      }

      .st108 {
        fill: #ab45de;
      }

      .st109 {
        fill: #a33dd6;
      }

      .st110 {
        fill: #55007f;
      }

      .st111 {
        fill: #500078;
      }

      .st112 {
        fill: #bd57f0;
      }

      .st113 {
        fill: #620093;
      }

      .st114 {
        fill: #590085;
      }

      .st115 {
        fill: #6d07a0;
      }

      .st116 {
        fill: #831db6;
      }

      .st117 {
        fill: #5e008d;
      }

      .st118 {
        fill: #570082;
      }

      .st119 {
        fill: #68029b;
      }

      .st120 {
        fill: #7c16af;
      }

      .st121 {
        fill: #8923bc;
      }

      .st122 {
        fill: #7e18b1;
      }

      .st123 {
        fill: #4f0077;
      }

      .st124 {
        fill: #b650e9;
      }

      .st125 {
        fill: #ae48e1;
      }

      .st126 {
        fill: #46006a;
      }

      .st127 {
        fill: #460069;
      }

      .st128 {
        fill: #932dc6;
      }

      .st129 {
        fill: #b04ae3;
      }

      .st130 {
        fill: #ad47e0;
      }

      .st131 {
        fill: #5d008c;
      }

      .st132 {
        fill: #af49e2;
      }

      .st133 {
        fill: #b24ce5;
      }

      .st134 {
        fill: #4b0071;
      }

      .st135 {
        fill: #9630c9;
      }

      .st136 {
        fill: #4f0076;
      }

      .st137 {
        fill: #5f008f;
      }

      .st138 {
        fill: #48006d;
      }

      .st57 {
        fill: #ddd;
      }

      .st139 {
        fill: #6e08a1;
      }

      .st140 {
        fill: #9c36cf;
      }

      .st141 {
        fill: #590086;
      }

      .st142 {
        fill: #b34de6;
      }

      .st58 {
        fill: #6a298a;
      }

      .st143 {
        fill: #8f29c2;
      }

      .st144 {
        fill: #a13bd4;
      }

      .st145 {
        fill: #48006c;
      }

      .st146 {
        fill: #93c;
      }

      .st147 {
        fill: #5b0088;
      }

      .st148 {
        fill: #410063;
      }

      .st149 {
        fill: #610091;
      }

      .st150 {
        fill: #8a24bd;
      }

      .st151 {
        fill: #6a049d;
      }

      .st152 {
        fill: #53007d;
      }

      .st153 {
        clip-path: url(#clippath);
      }

      .st154 {
        fill: #49006e;
      }

      .st155 {
        fill: #410061;
      }

      .st156 {
        fill: #9b35ce;
      }

      .st157 {
        fill: #450068;
      }

      .st158 {
        fill: #801ab3;
      }

      .st159 {
        fill: #69039c;
      }

      .st160 {
        fill: #ba54ed;
      }

      .st161 {
        fill: #53007c;
      }
    </style>
    <clipPath id="clippath">
      <rect class="st0" x="99.2969572" y="92.4000015" width="146.4030245" height="146.4030245" rx="19.752789" ry="19.752789"/>
    </clipPath>
  </defs>
  <g>
    <path class="st56" d="M174.8000031,30.3999996c0-14.3999996-11.6999969-26.1000004-26.1999969-26.1000004H49.9000015c-1.2000008,0-2.5.0999999-3.7000008.3000002h-6.2000008c-14.3999996,0-26.1000004,11.6999998-26.1000004,26.1999998l.1000004,259.5999947c0,14.3999939,11.7000008,26.1000061,26.2000008,26.1000061h108.6999931c14.3999939,0,26.1000061-12,26.1000061-26.5l-.1999969-259.6000004Z"/>
    <path class="st57" d="M146.6999969,15.8999996h-9.6999969c-1.6000061,0-2.8000031,1.2999992-2.8000031,2.7999992v4c0,3.1000004-2.5,5.6000004-5.6000061,5.6000004h-58.8999939c-3.0999985,0-5.5999985-2.5-5.5999985-5.6000004v-4c0-1.6000004-1.2999992-2.8000002-2.7999992-2.8000002h-9.7000008c-10.7000008,0-19.2999992,8.6999998-19.2999992,19.2999983l.0999985,250.0000153c0,10.7000122,8.7000008,19.2999878,19.2999992,19.2999878h95.1999969c10.6999969,0,19.3000031-8.7000122,19.3000031-19.2999878l-.1000061-250c-.0999908-10.7000122-8.7999878-19.3000126-19.3999939-19.3000126Z"/>
    <path class="st58" d="M23.7000008,30.3999996l.0999985,259.6000004c0,14.3999939,11.7000008,26.1000061,26.2000008,26.1000061l-9.9000015.2999878c-14.3999996,0-26.1000004-11.7000122-26.2000008-26.1000061l-.0999975-259.599987c0-14.5,11.6999998-26.2000008,26.1999998-26.2000008h6.2000008c-12.7000008,1.8000002-22.5,12.7000008-22.5,25.8999996ZM113.8000031,18.5h-2c-.4000015,0-.6999969.2999992-.6999969.7000008s.3000031.7000008.6999969.7000008h2c.4000015,0,.6999969-.2999992.6999969-.7000008s-.3000031-.7000008-.6999969-.7000008ZM107.0999985,18.5h-16.6999969c-.4000015,0-.6999969.2999992-.6999969.7000008,0,.3999996.3000031.7000008.6999969.7000008h16.7000046c.4000015,0,.6999969-.2999992.6999969-.7000008.0999985-.4000015-.3000031-.7000008-.7000046-.7000008Z"/>
  </g>
  <g>
    <g class="st153">
      <rect class="st83" x="99.2969572" y="92.4000015" width="146.4030245" height="146.4030245"/>
      <path class="st83" d="M246.2809461,163.0568576v24.2375588h3.5034987c-1.457675,7.8436355-3.6796875,15.4244167-6.5870378,22.6604316-2.9073506,7.2360147-6.5000391,14.1272632-10.6990663,20.5918339-2.0995138,3.2322851-4.350612,6.3579009-6.74342,9.3666082v-.5292997h-127.0389279V91.8190371h127.9206119v-.1558431c1.1800856,1.5198193,2.3245451,3.0688944,3.4320979,4.6459909,4.4302122,6.3083851,8.2699228,13.0651107,11.4372202,20.191177,3.1672977,7.1260663,5.6621824,14.6214737,7.4027424,22.4072229h-2.6277192v24.1492728Z"/>
      <path class="st14" d="M246.2809461,163.0731619v24.0556825h2.6177023c-1.4467369,7.7847779-3.6520755,15.3086735-6.5376095,22.4903898-2.885534,7.1817166-6.4512632,14.0212536-10.6187813,20.4373149-2.0837591,3.2080304-4.3179654,6.3101919-6.6928183,9.2963221-.5937131.7465325-1.1962168,1.4858133-1.8073575,2.2176831v-2.186564h-124.5260889V91.8190371h123.5900156v-4.0407189c2.481357,2.8982351,4.8263588,5.917515,7.0248429,9.0480387,4.396968,6.2610479,8.2078658,12.9670714,11.3513963,20.0396646,3.1435306,7.072593,5.6196939,14.5117556,7.3471927,22.2390812h-1.7484943v23.9680591Z"/>
      <path class="st37" d="M249.9838352,163.0894659c.2954952,16.3261138-2.7317292,31.9393186-8.4591644,46.1941548-2.8637174,7.1274179-6.4024876,13.915244-10.5384966,20.2827957-2.0680046,3.1837757-4.285319,6.2624829-6.6422163,9.2260361-1.1784486,1.4817765-2.391793,2.9347648-3.6388173,4.3577038v-3.7661659h-121.9891478V91.8190371h122.9052764v-3.4551376c2.4625966,2.8763224,4.7898684,5.8727746,6.9717305,8.9796298,4.3637241,6.2137103,8.1458093,12.8690321,11.2655728,19.8881519,6.2395269,14.0382394,9.8297675,29.5316709,10.1252628,45.8577847Z"/>
      <path class="st20" d="M249.0830231,163.1057703c.2932441,16.2017377-2.7109183,31.6959972-8.3947202,45.8422366-2.8419011,7.0731199-6.353712,13.8092344-10.4582121,20.1282767-2.0522499,3.159521-4.2526721,6.2147738-6.591614,9.15575-1.1694711,1.470488-2.373572,2.9124069-3.6110962,4.3245056v-3.172549h-121.3113877V91.8190371h122.2205372v-2.8695566c2.4438358,2.8544102,4.7533781,5.8280347,6.9186181,8.9112211,4.3304805,6.1663728,8.0837526,12.7709928,11.1797492,19.7366393,6.1919926,13.9312929,9.7548817,29.3066916,10.0481259,45.5084293Z"/>
      <path class="st18" d="M248.1822113,163.1220746c.290993,16.0773617-2.6901073,31.4526758-8.3302764,45.4903188-2.8200846,7.0188212-6.3049364,13.7032248-10.3779274,19.9737575-2.0364955,3.1352661-4.2200258,6.1670648-6.5410122,9.0854637-1.1604932,1.4591997-2.3553506,2.8900495-3.5833746,4.291308v-2.5789323h-120.6336279V91.8190371h121.535798v-2.2839753c2.4250751,2.8324975,4.7168878,5.7832946,6.8655059,8.8428122,4.2972364,6.1190352,8.0216958,12.6729532,11.093925,19.5851266,6.1444587,13.8243464,9.6799965,29.0817126,9.9709895,45.159074Z"/>
      <path class="st10" d="M247.2813995,163.1383789c.2887416,15.9529853-2.6692966,31.2093547-8.2658328,45.1384007-2.798268,6.9645231-6.2561606,13.5972153-10.2976424,19.8192385-2.020741,3.1110114-4.1873792,6.1193557-6.4904102,9.0151777-1.1515157,1.4479112-2.3371295,2.8676916-3.5556535,4.2581099v-1.9853153h-119.9558678V91.8190371h120.8510587v-1.698394c2.4063144,2.8105851,4.6803971,5.7385541,6.8123935,8.774403,4.2639928,6.0716977,7.9596394,12.5749142,11.0081015,19.4336142,6.0969244,13.7173997,9.605111,28.8567334,9.8938529,44.8097186Z"/>
      <path class="st107" d="M246.3805874,163.1546833c.2864908,15.8286092-2.6484853,30.9660333-8.2013887,44.7864829-2.7764517,6.9102248-6.207385,13.4912057-10.2173577,19.664719-2.0049863,3.086757-4.1547326,6.0716467-6.4398085,8.9448919-1.1425378,1.4366224-2.3189079,2.8453338-3.5279318,4.2249117v-1.3916983h-119.2781079V91.8190371h120.1663195v-1.112813c2.3875537,2.7886726,4.6439068,5.6938142,6.7592814,8.7059943,4.2307486,6.0243601,7.8975824,12.4768749,10.9222776,19.2821015,6.0493899,13.6104532,9.5302255,28.6317541,9.816716,44.4603633Z"/>
      <path class="st68" d="M245.4797756,163.1709876c.2842394,15.7042328-2.6276746,30.7227122-8.1369448,44.4345647-2.7546351,6.8559264-6.1586094,13.3851961-10.1370732,19.5102001-1.9892316,3.0625023-4.122086,6.0239377-6.3892062,8.8746058-1.1335603,1.4253339-2.3006868,2.8229761-3.5002105,4.1917138v-.7980817h-118.6003481V91.8190371h119.4815803v-.5272317c2.3687933,2.7667602,4.6074165,5.6490741,6.706169,8.6375854,4.1975047,5.9770226,7.8355259,12.3788354,10.8364538,19.1305888,6.001856,13.5035064,9.4553403,28.4067748,9.7395797,44.1110079Z"/>
      <path class="st43" d="M244.5789635,163.1872916c.2819886,15.579857-2.6068634,30.4793911-8.0725006,44.0826472-2.7328188,6.801628-6.1098338,13.2791865-10.0567885,19.3556809-1.9734772,3.0382473-4.0894393,5.9762286-6.3386042,8.8043198-1.1245827,1.4140454-2.2824658,2.8006183-3.4724894,4.1585156v-.2044647h-117.922588V91.8190371h115.176141v-3.9717825c1.2383828,1.3139442,2.4456836,2.6577083,3.6207002,4.0301321,2.3500326,2.7448475,4.5709261,5.6043337,6.6530565,8.5691764,4.1642611,5.929685,7.7734692,12.2807961,10.7506302,18.9790762,5.9543217,13.3965599,9.3804545,28.1817956,9.6624428,43.7616523Z"/>
      <path class="st48" d="M243.6781517,163.203596c.5594744,30.9109615-11.4631592,59.1223564-31.3534016,79.7458798v-3.5654854h-113.6087573V91.8190371h114.5203063v-3.3540283c1.2284966,1.303455,2.4261594,2.6364915,3.5917953,3.9979592,2.3312721,2.7229351,4.534436,5.5595935,6.5999447,8.5007672,4.131017,5.8823478,7.7114124,12.1827571,10.6648063,18.8275638,5.9067875,13.2896132,9.305569,27.9568163,9.5853062,43.4122969Z"/>
      <path class="st54" d="M242.7773398,163.2199003c.5549719,30.662209-11.3709108,58.6465761-31.101089,79.1041341v-2.940044h-112.960258V91.8190371h113.8644717v-2.7362738c1.2186104,1.2929654,2.4066352,2.6152747,3.5628908,3.9657857,2.3125114,2.7010226,4.4979457,5.5148536,6.5468323,8.4323586,4.0977734,5.8350102,7.6493557,12.0847175,10.5789825,18.6760511,5.8592535,13.1826667,9.2306837,27.7318371,9.5081698,43.0629416Z"/>
      <path class="st4" d="M241.8765277,163.2362046c.55047,30.4134566-11.2786622,58.1707958-30.848776,78.4623884v-2.3146027h-112.3117589V91.8190371h113.208637v-2.1185197c1.2087242,1.2824761,2.387111,2.5940579,3.5339862,3.9336128,2.2937507,2.6791102,4.4614554,5.4701132,6.4937201,8.3639497,4.0645292,5.7876727,7.587299,11.9866782,10.4931586,18.5245382,5.8117193,13.0757202,9.1557982,27.5068581,9.431033,42.7135865Z"/>
      <path class="st78" d="M240.9757159,163.252509c.5459675,30.1647041-11.1864139,57.6950154-30.5964632,77.8206427v-1.6891613h-111.6632599V91.8190371h112.5528023v-1.5007652c1.198838,1.2719865,2.3675868,2.5728408,3.5050817,3.9014396,2.27499,2.6571975,4.424965,5.425373,6.4406077,8.2955407,4.0312853,5.7403351,7.5252425,11.8886389,10.407335,18.3730255,5.7641851,12.9687737,9.0809125,27.2818791,9.3538963,42.3642312Z"/>
      <path class="st23" d="M240.0749041,163.2688133c.541465,29.9159519-11.0941655,57.2192354-30.3441504,77.178897v-1.0637199h-111.0147609V91.8190371h111.8969677v-.883011c1.1889518,1.2614972,2.3480623,2.5516242,3.4761771,3.8692667,2.2562295,2.6352851,4.3884747,5.3806329,6.3874953,8.2271315,3.9980417,5.6929978,7.4631858,11.7905996,10.3215112,18.2215131,5.7166508,12.8618269,9.0060272,27.0568999,9.27676,42.0148758Z"/>
      <path class="st155" d="M239.174092,163.2851176c.5369631,29.6671994-11.0019169,56.7434551-30.0918376,76.5371513v-.4382786h-110.3662616V91.8190371h107.6163027v-3.9320008c19.7936965,19.0899204,32.3048337,45.7308816,32.8417965,75.3980813Z"/>
      <path class="st148" d="M238.2732802,163.3014217c.5324606,29.4184472-10.9096685,56.267675-29.8395248,75.8954059-1.1831159,1.2267333-2.3954811,2.4252574-3.6359994,3.5944368v-3.407274h-106.0817631V91.8190371h106.9908613v-3.2835018c19.6277312,18.9298562,32.0339654,45.3474394,32.566426,74.7658863Z"/>
      <path class="st103" d="M237.3724681,163.317726c.5279583,29.1696951-10.8174202,55.7918947-29.5872117,75.2536602-1.173112,1.2163604-2.3752255,2.4047503-3.6052546,3.5640435v-2.7514393h-105.4640089V91.8190371h106.36542v-2.6350028c19.4617655,18.7697918,31.7630972,44.9639969,32.2910553,74.1336916Z"/>
      <path class="st44" d="M236.4716563,163.3340303c.5234558,28.9209426-10.7251718,55.3161144-29.3348989,74.6119145-1.1631081,1.2059877-2.3549703,2.3842433-3.5745101,3.5336502v-2.0956047h-104.8462545V91.8190371h105.7399786v-1.9865035c19.2958001,18.6097273,31.492229,44.5805541,32.0156848,73.5014967Z"/>
      <path class="st41" d="M235.5708444,163.3503347c.5189536,28.6721901-10.6329235,54.840334-29.0825864,73.9701688-1.1531038,1.1956148-2.3347147,2.3637362-3.5437649,3.5032569v-1.43977h-104.2285003V91.8190371h105.1145372v-1.3380045c19.1298348,18.4496629,31.2213604,44.1971119,31.7403144,72.869302Z"/>
      <path class="st17" d="M234.6700323,163.366639c.5144514,28.4234376-10.5406748,54.3645537-28.8302733,73.3284231-1.1430999,1.1852418-2.3144594,2.3432288-3.5130204,3.4728636v-.7839354h-103.6107458V91.8190371h104.4890959v-.6895054c18.9638694,18.2895987,30.9504922,43.8136694,31.4649436,72.2371073Z"/>
      <path class="st157" d="M233.7692205,163.3829433c.5099489,28.1746855-10.4484265,53.8887736-28.5779605,72.6866777-2.2661919,2.3497378-4.6444329,4.5914105-7.1263306,6.7163156v-3.4019462h-99.3489366V91.8190371h103.8636545v-.0410061c18.7979041,18.129534,30.679624,43.4302269,31.1895732,71.6049123Z"/>
      <path class="st127" d="M232.8684084,163.3992474c.505447,27.9259333-10.3561779,53.4129936-28.3256477,72.0449323-2.2461835,2.3289922-4.6034273,4.5508734-7.0634123,6.6570174v-2.7172067h-98.7633556V91.8190371h99.6654694v-2.6774478c1.2169737,1.066522,2.4082478,2.1618486,3.5727437,3.2849407,18.6319387,17.9694695,30.4087557,43.0467844,30.9142024,70.9727174Z"/>
      <path class="st126" d="M231.9675966,163.4155517c.5009445,27.6771808-10.2639295,52.9372133-28.0733349,71.4031866-2.2261756,2.3082466-4.562422,4.5103359-7.0004946,6.5977196v-2.0324675h-98.1777743V91.8190371h99.0718527v-1.9996879c1.2061332,1.057022,2.3867958,2.1425921,3.5409193,3.2556799,18.465973,17.8094054,30.1378872,42.6633419,30.6388317,70.3405227Z"/>
      <path class="st15" d="M231.0667848,163.431856c.496442,27.4284286-10.1716812,52.4614329-27.8210221,70.7614409-2.2061677,2.287501-4.5214167,4.4697988-6.9375769,6.5384218v-1.3477283h-97.592193V91.8190371h98.4782358v-1.3219278c1.1952932,1.0475217,2.3653443,2.1233352,3.5090949,3.2264188,18.3000077,17.6493409,29.867019,42.2798996,30.3634612,69.708328Z"/>
      <path class="st145" d="M230.1659727,163.4481604c.4919401,27.1796761-10.0794325,51.9856526-27.568709,70.1196952-2.1861596,2.2667551-4.4804114,4.4292617-6.8746591,6.4791239v-.6629891h-97.0066117V91.8190371h94.2572714v-3.6731153c2.4668583,1.9618787,4.8378625,4.039946,7.1046179,6.2261055,18.1340423,17.4892765,29.5961507,41.8964569,30.0880905,69.076133Z"/>
      <path class="st138" d="M229.2651609,163.4644647c.4874376,26.9309237-9.9871842,51.5098723-27.3163965,69.4779495-2.1661514,2.2460095-4.4394058,4.3887243-6.8117408,6.4198261-1.1861677,1.0155508-2.3971053,2.0031984-3.6318103,2.961903v-2.9401529h-92.7892204V91.8190371h93.6968526v-2.9676341c2.444281,1.9439233,4.7935856,4.0029717,7.0395954,6.1691234,17.9680769,17.329212,29.3252825,41.5130144,29.8127201,68.4439383Z"/>
      <path class="st154" d="M228.364349,163.480769c.4829351,26.6821715-9.8949358,51.0340919-27.0640837,68.8362038-2.1461435,2.2252639-4.3984005,4.3481872-6.7488231,6.3605282-1.1752113,1.0061704-2.374964,1.9846956-3.5982644,2.9345448v-2.2280555h-92.237185V91.8190371h93.1364335v-2.2621526c2.4217043,1.9259676,4.7493091,3.9659974,6.9745731,6.1121409,17.8021116,17.1691479,29.0544143,41.1295722,29.5373496,67.8117436Z"/>
      <path class="st53" d="M227.4635369,163.4970734c.4784328,26.433419-9.8026875,50.5583119-26.8117706,68.1944581-2.1261354,2.2045183-4.3573952,4.3076498-6.6859054,6.3012304-1.1642549.9967903-2.3528225,1.9661925-3.5647183,2.9071866v-1.5159581h-91.6851498V91.8190371h92.5760147v-1.5566714c2.3991273,1.9080125,4.7050322,3.9290233,6.9095505,6.0551587,17.6361462,17.0090834,28.783546,40.7461297,29.2619789,67.1795489Z"/>
      <path class="st40" d="M226.5627251,163.5133774c.4739306,26.1846668-9.7104391,50.0825318-26.5594578,67.5527127-4.2122549,4.3675451-8.8410503,8.3333602-13.8239852,11.8327435v-3.5148432h-87.4632893V91.8190371h92.0155959v-.8511899c2.37655,1.8900568,4.6607552,3.892049,6.8445279,5.9981765,17.4701808,16.8490187,28.5126778,40.3626872,28.9866084,66.5473537Z"/>
      <path class="st134" d="M225.661913,163.5296817c.4694284,25.9359143-9.6181905,49.6067515-26.307145,66.910967-4.1722386,4.3260539-8.7570606,8.2541938-13.6926583,11.7203335v-2.7769919h-86.9461169V91.8190371h91.4551772v-.1457087c2.353973,1.8721017,4.6164785,3.855075,6.7795053,5.9411943,17.3042155,16.6889545,28.2418095,39.9792447,28.7112377,65.915159Z"/>
      <path class="st8" d="M224.7611012,163.5459861c.4649259,25.6871621-9.5259421,49.1309712-26.0548322,66.2692213-4.1322226,4.2845625-8.6730715,8.1750277-13.5613316,11.6079232v-2.0391402h-86.4289446V91.8190371h87.3307132v-2.1381339c1.2100015.8712125,2.3983472,1.7708334,3.5640451,2.6979064,2.3313959,1.8541463,4.5722015,3.818101,6.7144828,5.8842121,17.1382501,16.5288901,27.9709413,39.5958022,28.4358672,65.2829643Z"/>
      <path class="st69" d="M223.8602894,163.5622904c.4604237,25.4384097-9.4336938,48.6551908-25.8025194,65.6274756-4.0922065,4.2430713-8.5890821,8.0958614-13.4300047,11.4955133v-1.3012889h-85.9117725V91.8190371h83.1466004v-3.9095052c4.9607759,3.2222454,9.5941281,6.9097826,13.8371993,11.0019892,16.9722847,16.3688256,27.7000731,39.2123597,28.1604968,64.6507693Z"/>
      <path class="st101" d="M222.9594773,163.5785947c.4559215,25.1896572-9.3414452,48.1794105-25.5502066,64.9857299-4.0521902,4.2015798-8.5050927,8.016695-13.2986777,11.383103v-.5634373h-85.3946001V91.8190371h82.6564677v-3.153422c4.9122663,3.1907365,9.5003109,6.8422145,13.7018907,10.894405,16.8063194,16.2087612,27.4292048,38.8289172,27.885126,64.0185746Z"/>
      <path class="st11" d="M222.0586655,163.5948991c.451419,24.940905-9.2491968,47.7036305-25.2978938,64.3439842-4.0121742,4.1600886-8.4211036,7.9375289-13.1673511,11.2706927-1.1865619.833291-2.3942062,1.638815-3.6220041,2.4156083v-2.241194h-81.2554236V91.8190371h82.166335v-2.3973388c4.8637569,3.1592274,9.4064935,6.7746466,13.5665821,10.7868208,16.640354,16.048697,27.1583363,38.4454749,27.6097556,63.38638Z"/>
      <path class="st136" d="M221.1578534,163.6112034c.4469171,24.6921525-9.1569482,47.2278501-25.0455807,63.7022385-3.9721581,4.1185971-8.3371142,7.8583625-13.0360244,11.1582828-2.349455,1.64996-4.7823984,3.1899589-7.2914749,4.6123697v-3.700104h-77.0687805V91.8190371h81.6762022v-1.6412556c4.8152473,3.1277185,9.3126763,6.7070784,13.4312734,10.6792366,16.4743886,15.8886326,26.8874681,38.0620324,27.3343848,62.7541853Z"/>
      <path class="st123" d="M220.2570415,163.6275075c.4424146,24.4434004-9.0646998,46.7520701-24.7932679,63.0604931-3.9321421,4.0771059-8.2531251,7.7791964-12.9046974,11.0458725-2.3257865,1.6333382-4.7342201,3.1578228-7.2180199,4.5659042v-2.9157869h-76.6250634V91.8190371h81.1860695v-.8851721c4.7667379,3.0962091,9.2188592,6.6395103,13.2959648,10.5716524,16.3084233,15.7285681,26.6165998,37.6785897,27.0590144,62.12199Z"/>
      <path class="st111" d="M219.3562297,163.6438118c.4379121,24.1946482-8.9724515,46.2762898-24.5409554,62.4187474-3.8921258,4.0356147-8.1691354,7.70003-12.7733705,10.9334625-2.3021177,1.6167161-4.6860415,3.1256865-7.1445644,4.5194382v-2.1314695h-76.1813465V91.8190371h80.6959368v-.1290889c4.7182283,3.0646999,9.1250418,6.5719421,13.1606562,10.4640682,16.1424579,15.5685037,26.3457316,37.2951474,26.7836439,61.4897953Z"/>
      <path class="st45" d="M218.4554176,163.6601161c.4334098,23.9458957-8.8802028,45.8005094-24.2886423,61.7770017-3.8521097,3.9941232-8.0851463,7.6208636-12.6420438,10.8210522-2.2784486,1.6000943-4.6378629,3.0935505-7.0711089,4.4729727v-1.3471524h-75.7376297V91.8190371h72.9774618v-3.5871646c2.48157,1.2904661,4.8934826,2.6975634,7.2283422,4.2141589,4.6697189,3.0331911,9.0312246,6.5043742,13.0253476,10.356484,15.9764925,15.4084392,26.0748634,36.9117049,26.5082732,60.8576006Z"/>
      <path class="st82" d="M217.5546058,163.6764204c.4289076,23.6971432-8.7879548,45.3247291-24.0363295,61.1352563-3.8120937,3.9526317-8.0011569,7.5416972-12.5107172,10.7086417-2.2547799,1.5834725-4.5896841,3.0614147-6.9976534,4.4265072v-.5628353h-75.2939128V91.8190371h72.5624179v-2.7873044c2.4557912,1.2770608,4.8426487,2.6695412,7.1532533,4.170382,4.6212093,3.0016819,8.9374072,6.4368061,12.8900389,10.2488998,15.8105272,15.248375,25.8039951,36.5282627,26.2329027,60.2254059Z"/>
      <path class="st42" d="M216.653794,163.6927248c.4244051,23.4483908-8.6957064,44.8489488-23.7840167,60.4935106-7.5441553,7.8222808-16.5803603,14.2055625-26.6615755,18.6863246v-3.4885696h-67.4922089V91.8190371h72.1473738v-1.987444c2.4300123,1.2636553,4.7918148,2.6415187,7.0781648,4.1266051,4.5726999,2.9701728,8.8435901,6.3692379,12.7547303,10.1413156,15.6445618,15.0883103,25.5331269,36.1448199,25.9575323,59.593211Z"/>
      <path class="st161" d="M215.7529819,163.7090291c.4199029,23.1996386-8.6034578,44.3731687-23.5317039,59.8517649-7.4641229,7.7392981-16.4044674,14.0548626-26.3787358,18.4880905v-2.6648941h-67.1265493V91.8190371h71.7323299v-1.1875835c2.4042334,1.2502497,4.7409807,2.6134959,7.0030759,4.0828278,4.5241903,2.9386636,8.7497729,6.3016698,12.6194219,10.0337314,15.4785962,14.9282461,25.2622584,35.7613774,25.6821613,58.9610163Z"/>
      <path class="st152" d="M214.8521701,163.7253332c.4154007,22.9508864-8.5112094,43.8973887-23.2793911,59.2100195-7.3840908,7.6563154-16.2285746,13.904163-26.0958965,18.2898566v-1.8412189h-66.7608896V91.8190371h63.9887224v-3.7560642c10.0195651,4.0257501,19.0843486,9.949448,26.740664,17.3335389,15.3126308,14.7681817,24.9913901,35.3779352,25.4067908,58.3288213Z"/>
      <path class="st35" d="M213.951358,163.7416375c.4108985,22.7021339-8.4189608,43.4216083-23.027078,58.5682738-7.3040588,7.5733327-16.052682,13.7534631-25.8130572,18.0916228v-1.0175437h-66.3952299V91.8190371h63.6531089v-2.9196962c9.9109684,3.9821172,18.8775034,9.8416115,26.4508361,17.14567,15.1466654,14.6081175,24.7205219,34.9944927,25.1314201,57.6966266Z"/>
      <path class="st110" d="M213.0505461,163.7579418c.406396,22.4533817-8.3267125,42.945828-22.7747652,57.9265281-7.2240267,7.49035-15.8767892,13.6027635-25.5302178,17.8933887v-.1938682h-63.2997336v1.3395649c-1.2252964-.4923107-2.435998-1.0136337-3.6312374-1.5631333h.9014008V92.5749195h-3.5545321c1.1745719-.5923922,2.365615-1.1571858,3.5722936-1.6935139v.9376315h63.2997336v-2.083328c9.8023719,3.938484,18.6706585,9.7337746,26.1610086,16.957801,14.9807001,14.4480528,24.4496536,34.6110502,24.8560496,57.0644317Z"/>
      <path class="st39" d="M212.1497343,163.7742461c.4018935,22.2046292-8.2344641,42.4700477-22.5224527,57.2847824-7.1439943,7.4073674-15.700896,13.4520636-25.2473782,17.6951548-2.3866204,1.0607729-4.8350898,2.0089453-7.3387933,2.837659v-2.207852h-55.2596671v.5031967c-2.4234437-.9737127-4.789154-2.0621901-7.0902722-3.258818h4.0248221V93.3798329h-3.1492963c1.1615592-.5858292,2.3394072-1.1443656,3.5327174-1.6747521v.1139563h62.5984604v-1.2469601c9.6937749,3.8948512,18.4638134,9.6259378,25.8711807,16.7699321,14.8147347,14.2879886,24.1787854,34.2276077,24.5806792,56.432237Z"/>
      <path class="st19" d="M211.2489222,163.7905505c.3973916,21.9558768-8.1422155,41.9942673-22.2701396,56.6430367-7.063962,7.3243847-15.5250035,13.3013638-24.9645389,17.496921-4.7197677,2.0977785-9.6841588,3.7502015-14.8408504,4.9030167v-3.4495345h-32.0477796v4.029585c-5.1950314-.965454-10.2159678-2.4371471-15.0085569-4.3627562-2.3962947-.9628046-4.7355025-2.0390882-7.0108421-3.2223105h3.6097782V94.1847466h-2.7440605c1.1485465-.5792665,2.3131993-1.1315457,3.4931413-1.6559903,2.3598839-1.0488894,4.7809236-1.9864398,7.2565788-2.8058698v2.0961507h54.6406081v-.4105921c9.5851785,3.8512183,18.2569685,9.5181012,25.5813531,16.5820632,14.6487691,14.1279242,23.9079172,33.8441652,24.3053085,55.8000423Z"/>
      <path class="st118" d="M210.3481104,163.8068548c.3928891,21.7071246-8.0499671,41.518487-22.0178268,56.001291-6.9839299,7.241402-15.3491106,13.1506642-24.6816995,17.2986869-4.6662943,2.0740116-9.5744407,3.7077133-14.6727088,4.8474676v-2.5703099h-31.6846896v3.1437885c-5.1361735-.9545157-10.1002244-2.4095351-14.8385154-4.3133277-2.3691454-.9518964-4.6818507-2.0159862-6.9314114-3.1858027h3.194734V94.9896599h-2.3388247c1.1355338-.5727035,2.2869915-1.1187255,3.4535652-1.6372285,4.6662943-2.0740114,9.5744407-3.707713,14.6727088-4.8474673v3.3140729h31.6846899v-3.8875515c5.1361735.9545154,10.1002241,2.4095348,14.8385151,4.3133274,9.4765817,3.8075854,18.0501233,9.4102646,25.2915253,16.3941945,14.4828037,13.9678595,23.6370489,33.4607227,24.029938,55.1678473Z"/>
      <path class="st72" d="M209.4472983,163.8231591c.7767737,42.9167442-33.3844222,78.3373391-76.3011664,79.1141128-10.7291862.1941934-20.9898629-1.7952363-30.3578479-5.5591888-2.3419963-.9409883-4.6281995-1.9928839-6.8519813-3.1492952h2.7796901V95.7945736h-1.9335891c1.1225213-.5661408,2.2607841-1.1059056,3.4139893-1.6184669,4.6128209-2.0502442,9.4647226-3.6652245,14.5045674-4.7919179v2.4348483h31.3215996v-3.001755c5.0773155.9435773,9.984481,2.3819229,14.6684733,4.2638991,9.367985,3.7639525,17.8432784,9.3024275,25.0016977,16.2063253,14.3168383,13.8077953,23.3661807,33.0772802,23.7545673,54.5356526Z"/>
      <path class="st99" d="M208.5464865,163.8394632c.767769,42.4192398-32.9974194,77.4292277-75.4166589,78.1969967-10.6048101.1919423-20.7465418-1.7744253-30.00593-5.4947449-2.314847-.9300798-4.5745477-1.9697817-6.7725509-3.1127874h2.3646462V96.599487h-1.5283533c1.1095086-.5595777,2.2345761-1.0930857,3.3744132-1.5997048,9.1186954-4.0529545,19.1826272-6.3850356,29.7874371-6.5769779,21.2096199-.3838844,40.5669269,7.8654704,54.7177999,21.5132012,14.150873,13.6477308,23.0953122,32.693838,23.4791968,53.9034576Z"/>
      <path class="st114" d="M207.6456747,163.8557675c.7587643,41.9217352-32.6104165,76.521116-74.5321514,77.2798805-10.4804337.1896909-20.5032204-1.7536143-29.6540119-5.430301-2.287698-.9191717-4.5208962-1.9466794-6.6931205-3.0762799h1.949602V97.4044006h-1.1231175c1.0964959-.553015,2.2083684-1.0802658,3.3348371-1.5809433,9.0117489-4.0054203,18.957648-6.3101501,29.4380817-6.499841,41.9217349-.7587646,76.521116,32.6104162,77.2798805,74.5321511Z"/>
      <path class="st141" d="M206.7448626,163.8720719c.7497598,41.4242302-32.2234134,75.6130043-73.6476436,76.3627641-10.3560576.1874401-20.259899-1.7328033-29.3020941-5.3658569-2.2605486-.9082635-4.4672446-1.9235774-6.6136901-3.0397723h1.5345581V99.9242451h-3.9219783c2.1046479-1.1931376,4.2731568-2.2876409,6.4993576-3.2771125,8.9048021-3.9578861,18.7326687-6.2352646,29.0887263-6.4227044,41.4242302-.7497598,75.6130043,32.2234134,76.3627641,73.6476436Z"/>
      <path class="st71" d="M205.8440507,163.8883762c.7407551,40.9267256-31.8364106,74.7048928-72.7631361,75.4456479-10.2316813.1851887-20.0165779-1.7119923-28.950176-5.301413-2.2333996-.8973554-4.4135931-1.9004754-6.5342597-3.0032646h1.119514V100.7085624h-3.4782612c2.0793707-1.1788082,4.2218361-2.2601666,6.4213001-3.2377544,8.7978557-3.9103521,18.5076895-6.160379,28.739371-6.345568,40.9267256-.7407551,74.7048928,31.8364106,75.4456479,72.7631361Z"/>
      <path class="st147" d="M204.9432389,163.9046805c.7317504,40.4292209-31.4494078,73.7967811-71.8786287,74.5285318-10.1073052.1829376-19.7732565-1.6911816-28.5982581-5.2369694-2.2062503-.8864469-4.3599413-1.8773729-6.4548293-2.9667568h.7044701V101.4928795h-3.0345443c2.0540941-1.1644785,4.1705155-2.2326918,6.3432427-3.1983963,8.6909092-3.8628179,18.2827105-6.0854935,28.3900159-6.2684311,40.4292209-.7317507,73.7967811,31.4494075,74.5285318,71.8786284Z"/>
      <path class="st96" d="M204.0424268,163.9209848c.722746,39.9317162-31.0624044,72.8886694-70.9941206,73.6114154-9.9829291.1806865-19.5299357-1.6703704-28.2463403-5.1725253-2.1791012-.8755385-4.3062898-1.8542709-6.3753992-2.9302492h.2894262v-127.152429h-2.5908275c2.0288172-1.1501488,4.1191949-2.2052172,6.2651855-3.1590382,8.5839627-3.8152836,18.0577315-6.010608,28.0406606-6.1912945,39.931716-.722746,72.8886694,31.0624047,73.6114154,70.9941209Z"/>
      <path class="st90" d="M203.141615,163.9372889c.7137413,39.4342116-30.6754015,71.9805579-70.1096131,72.6942995-9.858553.1784354-19.2866143-1.6495597-27.8944225-5.1080814-2.1519519-.8646304-4.2526383-1.831169-6.2959686-2.8937417-1.0216653-.5312862-2.0289914-1.0865815-3.0212175-1.665151h2.8955995v-123.9031003h-2.1471106c2.0035405-1.1358194,4.0678746-2.1777427,6.1871283-3.11968,8.4770162-3.7677494,17.8327522-5.9357228,27.6913049-6.1141579,39.4342116-.7137416,71.9805579,30.6754015,72.6942995,70.1096128Z"/>
      <path class="st51" d="M202.2408029,163.9535932c.7047368,38.9367069-30.2883984,71.0724465-69.2251054,71.7771831-9.7341769.1761843-19.0432929-1.6287484-27.5425046-5.0436373-2.1248029-.8537222-4.1989865-1.8080667-6.2165382-2.8572342-1.0087758-.5245836-2.0033934-1.0728729-2.9831015-1.644143h2.4424396v-122.3399307h-1.7033938c1.9782636-1.1214897,4.016554-2.1502681,6.1090712-3.0803219,8.3700694-3.7202152,17.607773-5.860837,27.3419496-6.0370213,38.9367069-.7047368,71.0724465,30.2883987,71.7771831,69.2251054Z"/>
      <path class="st131" d="M201.3399911,163.9698976c.6957321,38.4392023-29.9013956,70.1643348-68.3405979,70.8600669-9.6098005.1739332-18.7999718-1.6079377-27.1905865-4.9791937-2.0976538-.8428138-4.145335-1.7849644-6.1371078-2.8207261-.9958864-.517881-1.9777957-1.0591648-2.9449859-1.6231356h1.9892798v-120.7767608h-1.2596769c1.952987-1.10716,3.9652333-2.1227936,6.031014-3.0409638,8.2631229-3.6726809,17.3827937-5.7859515,26.9925942-5.9598847,38.4392023-.6957321,70.1643348,29.9013959,70.8600669,68.3405979Z"/>
      <path class="st117" d="M200.4391793,163.9862019c.6867274,37.9416976-29.5143928,69.2562231-67.4560904,69.9429508-9.4854244.1716818-18.5566504-1.5871267-26.8386687-4.9147498-2.0705045-.8319056-4.0916835-1.7618625-6.0576774-2.7842186-.9829969-.5111784-1.9521978-1.0454565-2.9068697-1.602128h1.5361197v-119.2135907h-.8159598c1.9277098-1.0928306,3.9139127-2.0953191,5.9529565-3.0016057,8.1561762-3.625147,17.1578145-5.7110663,26.6432389-5.8827481,37.9416973-.6867277,69.2562231,29.5143928,69.9429508,67.4560901Z"/>
      <path class="st55" d="M199.5383672,164.0025062c.677723,37.4441927-29.1273897,68.3481113-66.5715826,69.0258343-9.361048.169431-18.3133293-1.5663158-26.4867505-4.8503057-4.0867106-1.641995-7.9787065-3.6710509-11.629726-6.042551h3.8656848v-115.9367012h-.3722429c1.9024332-1.0785009,3.8625921-2.0678445,5.8748994-2.9622476,8.0492297-3.5776127,16.9328352-5.6361808,26.2938835-5.8056114,37.4441927-.677723,68.3481113,29.1273897,69.0258343,66.5715826Z"/>
      <path class="st137" d="M198.6375553,164.0188105c.6687183,36.946688-28.7403868,67.4399999-65.6870751,68.1087182-9.2366719.1671796-18.0700079-1.5455048-26.1348327-4.7858618-4.0324123-1.6201787-7.8726969-3.6222753-11.4752067-5.9622663h3.3755521v-112.734777h-2.7008539c.909411-.5753591,1.8337497-1.1294378,2.7723279-1.6615236,1.8771566-1.0641715,3.8112715-2.0403702,5.7968422-2.9228898,7.9422829-3.5300785,16.707856-5.5612953,25.9445282-5.7284748,36.946688-.6687183,67.4399999,28.7403868,68.1087182,65.6870751Z"/>
      <path class="st80" d="M197.7367432,164.0351149c.6597138,36.4491833-28.3533837,66.5318882-64.8025671,67.191602-9.1122958.1649282-17.8266868-1.5246941-25.7829149-4.7214182-3.9781142-1.5983621-7.7666873-3.5734995-11.3206875-5.8819815h2.8854191v-111.2167495h-2.2198062c.8971653-.5676115,1.8090573-1.1142294,2.734997-1.6391505,1.8518797-1.0498421,3.7599509-2.0128954,5.718785-2.8835314,7.8353364-3.4825445,16.4828767-5.4864098,25.5951725-5.6513382,36.4491836-.6597138,66.5318885,28.3533837,67.191602,64.8025673Z"/>
      <path class="st149" d="M196.8359314,164.0514189c.6507091,35.9516789-27.9663809,65.6237767-63.9180596,66.2744859-8.9879197.1626774-17.5833657-1.5038828-25.430997-4.6569741-3.9238155-1.5765455-7.6606777-3.5247239-11.1661683-5.8016968h2.3952863v-109.6987223h-1.7387588c.88492-.5598639,1.7843652-1.099021,2.6976665-1.6167773,1.826603-1.0355124,3.7086305-1.9854209,5.6407279-2.8441733,7.7283897-3.4350103,16.2578977-5.4115242,25.2458172-5.5742016,35.9516787-.6507091,65.6237767,27.9663809,66.2744859,63.9180596Z"/>
      <path class="st65" d="M195.9351196,164.0677233c.6417044,35.454174-27.5793781,64.715665-63.0335521,65.3573697-8.8635436.160426-17.3400443-1.4830721-25.0790789-4.5925302-3.8695175-1.5547292-7.5546681-3.4759483-11.0116493-5.7214121h1.9051536v-106.4637687h-3.8320996c3.3734597-2.3690916,6.9866732-4.4224078,10.7973948-6.1161458,7.6214432-3.3874758,16.0329185-5.3366387,24.8964618-5.4970647,35.454174-.6417047,64.715665,27.5793778,65.3573697,63.0335518Z"/>
      <path class="st113" d="M195.0343075,164.0840276c.6327,34.9566693-27.192375,63.8075536-62.1490443,64.4402533-8.7391673.1581751-17.0967232-1.4622609-24.7271611-4.5280861-3.8152188-1.5329129-7.4486585-3.4271727-10.8571301-5.6411273h1.4150208v-104.9698339h-3.3149276c3.3261224-2.3358477,6.8886342-4.3603513,10.6458824-6.030322,7.5144964-3.3399418,15.8079392-5.2617535,24.5471065-5.4199284,34.9566693-.6327,63.8075536,27.192375,64.4402533,62.1490443Z"/>
      <path class="st64" d="M194.1334957,164.1003319c.6236953,34.4591647-26.8053721,62.8994419-61.2645368,63.5231371-8.6147912.1559237-16.8534018-1.4414499-24.375243-4.4636425-3.7609207-1.511096-7.342649-3.3783968-10.7026111-5.5608423h.9248881v-103.4758993h-2.7977552c3.2787849-2.3026039,6.7905949-4.2982943,10.4943698-5.9444981,7.4075499-3.2924076,15.58296-5.1868677,24.1977511-5.3427917,34.4591647-.6236953,62.8994419,26.8053721,63.5231371,61.2645368Z"/>
      <path class="st30" d="M193.2326839,164.1166363c.6146906,33.96166-26.4183693,61.9913302-60.3800293,62.606021-8.4904148.1536726-16.6100804-1.4206392-24.0233251-4.3991986-3.7066224-1.4892797-7.2366394-3.3296213-10.5480919-5.4805579h.4347554v-101.9819642h-2.2805828c3.2314473-2.26936,6.6925554-4.2362379,10.3428571-5.8586746,7.3006031-3.2448734,15.3579807-5.1119822,23.8483958-5.2656549,33.9616597-.6146908,61.9913302,26.418369,62.606021,60.3800291Z"/>
      <path class="st21" d="M192.3318718,164.1329406c.6056861,33.4641551-26.0313662,61.0832184-59.4955213,61.6889046-8.366039.1514215-16.3667596-1.3998279-23.6714073-4.3347545-3.652324-1.4674634-7.1306298-3.2808457-10.393573-5.4002731-.8157359-.5298568-1.6180115-1.0788414-2.4061812-1.646331h2.3508038v-98.8416983h-1.7634105c3.1841098-2.2361161,6.5945161-4.1741811,10.1913444-5.772851,7.1936567-3.1973391,15.1330014-5.0370967,23.4990404-5.1885182,33.4641551-.6056861,61.0832184,26.0313662,61.6889046,59.4955216Z"/>
      <path class="st25" d="M191.4310599,164.1492449c.5966814,32.9666504-25.6443634,60.175107-58.6110138,60.7717884-8.2416626.1491704-16.1234382-1.3790172-23.3194894-4.2703106-3.5980256-1.4456468-7.0246202-3.2320701-10.2390537-5.3199884-.8036086-.5219796-1.5939568-1.0628027-2.3704089-1.6218552h1.8248988v-97.3722395h-1.2462384c3.1367725-2.2028722,6.4964771-4.1121244,10.039832-5.6870268,7.0867099-3.1498052,14.9080222-4.9622115,23.1496848-5.1113816,32.9666507-.5966817,60.1751073,25.6443631,60.7717887,58.6110138Z"/>
      <path class="st59" d="M190.5302478,164.165549c.587677,32.469146-25.2573603,59.2669956-57.726506,59.8546723-8.1172865.1469193-15.8801171-1.358206-22.9675713-4.2058667-3.5437273-1.4238302-6.9186106-3.1832942-10.0845348-5.2397034-1.5829622-1.0282047-3.1136847-2.1306456-4.5871529-3.3024866h3.55151v-94.1976733h-.729066c3.089435-2.1696283,6.3984375-4.0500677,9.8883193-5.6012033,6.9797634-3.1022709,14.6830429-4.8873257,22.8003294-5.034245,32.469146-.587677,59.2669956,25.2573603,59.8546723,57.726506Z"/>
      <path class="st88" d="M189.629436,164.1818533c.5786723,31.9716414-24.8703574,58.3588838-56.8419985,58.9375561-7.9929104.1446682-15.6367957-1.3373953-22.6156535-4.1414229-3.4894289-1.4020137-6.812601-3.1345186-9.9300155-5.1594187-1.5587075-1.0124503-3.0659756-2.097999-4.5168668-3.2518846h2.9910912v-92.7543407h-.2118937c3.0420974-2.1363845,6.3003982-3.9880109,9.7368067-5.5153794,6.8728166-3.0547364,14.4580639-4.8124402,22.4509741-4.9571084,31.9716411-.5786723,58.3588838,24.8703574,58.9375561,56.8419985Z"/>
      <path class="st88" d="M188.7286242,164.1981576c.5696676,31.4741364-24.4833546,57.4507721-55.957491,58.02044-7.868534.1424168-15.3934743-1.3165843-22.2637354-4.076979-3.4351308-1.3801974-6.7065914-3.0857431-9.7754966-5.0791342-1.5344529-.9966953-3.0182666-2.0653524-4.4465808-3.2012826h2.4306724v-87.9509122h-4.0225441c1.3862725-1.186873,2.8304428-2.308525,4.3278227-3.3600954,2.9947599-2.1031406,6.2023589-3.9259545,9.585294-5.4295556,6.7658701-3.0072025,14.2330847-4.737555,22.1016187-4.8799718,31.4741364-.5696678,57.4507721,24.4833543,58.02044,55.9574908Z"/>
      <path class="st73" d="M188.0735785,164.2100138c.5631198,31.1123648-24.2019364,56.7904183-55.3143012,57.3535381-7.7780913.1407799-15.2165382-1.3014512-22.0078307-4.0301171-3.3956464-1.3643329-6.6295041-3.0502747-9.6631345-5.0207533-1.5168152-.9852392-2.9835736-2.0416127-4.3954704-3.1644861h2.0231512v-86.9399822h-3.5967256c1.3703383-1.1732308,2.7979089-2.2819904,4.2780776-3.3214737,2.9603373-2.0789665,6.1310673-3.8808284,9.4751182-5.367147,6.6881016-2.9726369,14.0694859-4.6831003,21.8475773-4.8238802,31.1123648-.5631195,56.7904183,24.2019367,57.3535381,55.3143015Z"/>
      <path class="st119" d="M187.4185328,164.2218696c.556572,30.7505932-23.9205185,56.1300649-54.6711117,56.6866366-7.6876484.1391432-15.0396015-1.2863179-21.7519257-3.9832552-3.356162-1.3484685-6.5524165-3.0148065-9.5507725-4.9623724-1.4991778-.9737828-2.9488809-2.017873-4.3443603-3.1276897h1.6156302v-85.9290525h-3.170907c1.3544041-1.1595885,2.7653751-2.2554555,4.2283324-3.2828516,2.9259149-2.0547927,6.0597759-3.8357026,9.3649424-5.3047384,6.6103328-2.9380713,13.9058872-4.6286455,21.5935356-4.7677884,30.7505932-.5565717,56.1300649,23.9205188,56.6866366,54.6711117Z"/>
      <path class="st159" d="M186.7634874,164.2337257c.550024,30.3888215-23.6391009,55.4697111-54.0279224,56.0197351-7.5972054.137506-14.8626648-1.2711848-21.4960204-3.9363936-3.3166778-1.3326044-6.4753295-2.9793381-9.4384104-4.9039915-1.4815405-.9623267-2.9141884-1.9941333-4.2932503-3.0908935h1.2081089v-84.9181222h-2.7450885c1.3384699-1.1459463,2.7328412-2.2289206,4.1785872-3.2442298,2.8914923-2.0306187,5.9884845-3.7905769,9.2547667-5.2423296,6.5325643-2.903506,13.7422887-4.5741911,21.3394941-4.7116968,30.3888213-.550024,55.4697111,23.6391006,56.0197351,54.0279221Z"/>
      <path class="st151" d="M186.1084417,164.2455819c.5434759,30.0270496-23.3576829,54.8093573-53.3847326,55.3528332-7.5067624.135869-14.6857287-1.2560517-21.2401157-3.8895317-3.2771934-1.31674-6.3982422-2.9438698-9.3260484-4.8456107-1.4639031-.9508703-2.8794954-1.9703936-4.2421402-3.0540971h.8005879v-83.9071923h-2.31927c1.3225359-1.1323042,2.7003074-2.202386,4.1288423-3.2056081,2.8570697-2.0064446,5.9171928-3.7454508,9.1445906-5.179921,6.4547958-2.8689402,13.57869-4.5197363,21.0854524-4.6556053,30.0270499-.5434759,54.8093576,23.3576829,55.3528335,53.3847328Z"/>
      <path class="st106" d="M185.4533963,164.2574377c.5369279,29.665278-23.0762653,54.1490038-52.7415433,54.685932-7.4163194.1342318-14.508792-1.2409187-20.9842104-3.8426698-3.2377092-1.3008758-6.3211552-2.9084016-9.2136866-4.78723-1.4462657-.9394139-2.8448027-1.9466539-4.1910298-3.0173009h.3930666v-82.896262h-1.8934515c1.3066017-1.1186618,2.6677735-2.1758512,4.0790971-3.1669866,2.8226473-1.9822702,5.8459015-3.7003247,9.0344151-5.1175122,6.377027-2.8343746,13.4150913-4.4652816,20.8314107-4.5995135,29.665278-.5369281,54.1490038,23.076265,54.685932,52.741543Z"/>
      <path class="st62" d="M184.7983506,164.2692939c.5303801,29.3035064-22.7948471,53.4886501-52.0983537,54.0190302-14.6517532.26519-28.0239155-5.4335217-37.7994373-14.8614694h3.8154332v-78.5290241h-1.4676329c1.2906675-1.1050197,2.6352396-2.1493166,4.029352-3.1283648,2.7882247-1.9580965,5.7746101-3.6551987,8.9242394-5.0551034,6.2992585-2.7998093,13.2514925-4.410827,20.5773693-4.5434222,29.3035064-.5303801,53.4886501,22.7948474,54.0190302,52.0983537Z"/>
      <path class="st115" d="M184.143305,164.2811497c.5238323,28.9417347-22.5134292,52.8282963-51.4551639,53.3521286-14.4708675.2619162-27.6779415-5.3664411-37.3327777-14.6779944h3.3606295v-77.5595299h-1.0418144c1.2747332-1.0913776,2.6027058-2.1227817,3.9796068-3.089743,2.7538023-1.9339224,5.7033187-3.6100729,8.8140636-4.9926948,6.2214897-2.7652438,13.0878941-4.3563724,20.3233275-4.4873304,28.9417347-.5238323,52.8282963,22.5134295,53.3521286,51.4551639Z"/>
      <path class="st139" d="M183.4882595,164.2930059c.5172843,28.5799631-22.2320115,52.1679425-50.8119746,52.6852271-14.2899815.2586423-27.3319672-5.2993608-36.8661179-14.4945197h2.9058259v-76.590036h-.6159959c1.258799-1.0777352,2.5701719-2.0962468,3.9298619-3.051121,2.7193794-1.9097483,5.632027-3.5649471,8.7038875-4.9302862,6.1437212-2.7306779,12.9242953-4.3019175,20.0692861-4.4312385,28.5799631-.5172846,52.1679425,22.2320113,52.6852271,50.8119744Z"/>
      <path class="st87" d="M182.8332139,164.304862c.5107365,28.2181912-21.9505936,51.5075887-50.1687848,52.0183253-14.1090959.2553684-26.985993-5.2322802-36.3994584-14.3110446h2.4510222v-72.2571986h-3.7588447c9.0787644-9.4134654,21.7486446-15.3634988,35.8577405-15.6188672,28.2181912-.5107365,51.5075887,21.9505936,52.0183253,50.1687851Z"/>
      <path class="st60" d="M182.1781682,164.3167179c.5041887,27.8564198-21.6691757,50.8472353-49.5255952,51.351424-13.9282099.2520942-26.6400187-5.1651996-35.9327986-14.1275699h1.9962185v-71.3308242h-3.287274c8.96237-9.2927798,21.4698157-15.1665309,35.3980257-15.4186252,27.8564196-.5041887,50.8472353,21.6691757,51.3514237,49.5255952Z"/>
      <path class="st31" d="M181.5231228,164.328574c.4976407,27.4946479-21.3877581,50.1868815-48.882406,50.6845222-13.747324.2488203-26.2940442-5.098119-35.4661387-13.9440946h1.5414148v-70.4044502h-2.8157034c8.8459755-9.1720945,21.1909872-14.9695631,34.9383111-15.2183834,27.4946479-.4976407,50.1868815,21.3877581,50.6845222,48.882406Z"/>
      <path class="st6" d="M180.8680771,164.3404301c.4910929,27.132876-21.1063399,49.5265277-48.2392161,50.0176203-13.5664383.2455465-25.9480702-5.0310384-34.9994792-13.7606195h1.0866111v-69.4780758h-2.3441327c8.7295811-9.051409,20.9121583-14.772595,34.4785963-15.0181414,27.1328763-.4910926,49.526528,21.1063401,50.0176206,48.2392164Z"/>
      <path class="st61" d="M180.2130317,164.352286c.4845449,26.7711047-20.8249222,48.8661742-47.5960269,49.3507191-13.3855523.2422723-25.6020957-4.9639581-34.5328194-13.5771448h.6318074v-68.5517015h-1.8725621c8.6131866-8.9307234,20.6333295-14.5756272,34.0188818-14.8178994,26.7711047-.4845449,48.8661742,20.8249219,49.3507191,47.5960266Z"/>
      <path class="st77" d="M179.557986,164.3641421c.4779971,26.4093327-20.5435043,48.2058202-46.9528373,48.6838173-13.2046664.2389984-25.2561214-4.8968775-34.0661595-13.3936697h.1770037v-67.6253271h-1.4009914c8.4967922-8.8100381,20.3545007-14.378659,33.5591673-14.6176577,26.4093327-.4779968,48.2058202,20.5435043,48.6838173,46.9528373Z"/>
      <path class="st67" d="M178.9029403,164.375998c.471449,26.0475614-20.2620864,47.5454667-46.3096475,48.0169157-13.0237807.2357248-24.9101474-4.8297969-33.5995-13.2101947-1.086169-1.04755-2.1223847-2.1468945-3.1046245-3.2941545h2.8268246v-63.4047983h-.9294208c8.3803978-8.6893526,20.0756721-14.1816912,33.0994525-14.4174157,26.0475614-.471449,47.5454667,20.2620864,48.0169157,46.3096475Z"/>
      <path class="st34" d="M178.2478949,164.3878541c.464901,25.6857895-19.9806687,46.8851129-45.6664582,47.3500142-12.8428947.2324506-24.5641729-4.7627166-33.1328402-13.0267199-1.0710833-1.0330006-2.0929073-2.1170766-3.0615047-3.2484024h2.3289011v-62.5241761h-.4578501c8.2640033-8.5686673,19.7968433-13.9847234,32.639738-14.2171737,25.6857895-.4649013,46.8851129,19.9806685,47.3500142,45.6664579Z"/>
      <path class="st89" d="M177.5928492,164.3997102c.4583532,25.3240179-19.6992505,46.2247591-45.0232684,46.6831124-12.6620091.2291767-24.2181989-4.695636-32.6661806-12.8432449-1.0559976-1.0184512-2.0634295-2.0872584-3.0183849-3.2026503h1.8309775v-58.3337743h-2.8867925c.9139669-1.1492183,1.8820618-2.2537817,2.9005131-3.3097796,8.1476089-8.4479817,19.5180144-13.7877553,32.1800235-14.016932,25.3240179-.4583532,46.2247591,19.6992508,46.6831124,45.0232687Z"/>
      <path class="st70" d="M176.9378038,164.4115661c.4518052,24.9622462-19.4178329,45.5644057-44.3800791,46.0162111-12.4811231.2259026-23.8722244-4.6285557-32.1995208-12.6597701-2.081824-2.0078037-3.9721604-4.2141548-5.6401683-6.5893091h3.9979572v-54.0680238h-2.3737861c.9009104-1.1328009,1.8551754-2.2215847,2.8590773-3.2624969,8.0312144-8.3272961,19.2391856-13.5907874,31.7203087-13.81669,24.9622462-.4518054,45.5644057,19.4178326,46.0162111,44.3800788Z"/>
      <path class="st47" d="M176.2827581,164.4234222c.4452574,24.6004746-19.136415,44.9040519-43.7368896,45.3493093-12.3002372.2226287-23.5262501-4.5614751-31.732861-12.4762951-2.0516526-1.9787052-3.9145928-4.1530801-5.5584267-6.4938118h3.4614119v-53.2844291h-1.8607794c.8878534-1.1163836,1.8282884-2.189388,2.8176412-3.2152145,7.91482-8.2066109,18.9603567-13.3938196,31.2605942-13.6164483,24.6004743-.4452574,44.9040519,19.136415,45.3493093,43.7368896Z"/>
      <path class="st50" d="M175.6277124,164.4352784c.4387096,24.2387027-18.854997,44.2436981-43.0936997,44.6824075-12.1193515.2193548-23.1802761-4.4943942-31.2662014-12.2928201-2.0214813-1.9496065-3.8570253-4.0920054-5.4766853-6.3983148h2.9248669v-49.0764562h-3.8131284c1.5351402-2.3634098,3.2919544-4.5708286,5.2415608-6.5923101,7.7984258-8.0859253,18.6815282-13.1968515,30.8008794-13.4162063,24.238703-.4387096,44.2436984,18.854997,44.6824077,43.0937Z"/>
      <path class="st24" d="M174.972667,164.4471342c.4321616,23.876931-18.5735794,43.5833446-42.4505105,44.0155062-11.9384655.2160806-22.8343016-4.4273139-30.7995416-12.1093453-1.9913099-1.920508-3.7994577-4.0309305-5.3949437-6.3028175h2.3883216v-48.3439719h-3.2633255c1.5122277-2.3281351,3.2428206-4.5026072,5.1633286-6.4939174,7.6820314-7.9652397,18.4026993-12.9998837,30.3411649-13.2159643,23.876931-.4321618,43.5833443,18.5735791,44.0155062,42.4505102Z"/>
      <path class="st120" d="M174.3176213,164.4589903c.4256138,23.5151594-18.2921612,42.9229906-41.8073209,43.3486044-11.7575796.212807-22.4883274-4.3602333-30.3328818-11.9258703-1.9611385-1.8914092-3.7418902-3.9698558-5.3132021-6.2073202h1.8517763v-47.6114877h-2.7135226c1.4893152-2.2928601,3.1936871-4.4343858,5.0850963-6.3955246,7.565637-7.8445544,18.1238705-12.8029155,29.8814503-13.0157226,23.5151594-.4256138,42.9229906,18.2921615,43.3486044,41.8073209Z"/>
      <path class="st104" d="M173.6625756,164.4708462c.419066,23.1533878-18.0107433,42.2626371-41.1641311,42.6817031-11.5766939.2095329-22.1423531-4.293153-29.8662222-11.7423955-1.9309671-1.8623108-3.6843226-3.9087811-5.2314605-6.1118229h1.315231v-46.8790031h-2.1637197c1.4664024-2.2575856,3.1445533-4.3661647,5.0068641-6.2971321,7.4492425-7.7238689,17.8450416-12.6059477,29.4217355-12.8154806,23.1533878-.419066,42.2626371,18.0107433,42.6817028,41.1641311Z"/>
      <path class="st122" d="M173.0075302,164.4827023c.412518,22.7916162-17.7293256,41.6022833-40.5209418,42.0148013-11.3958079.206259-21.7963788-4.2260724-29.3995624-11.5589205-1.900796-1.833212-3.6267551-3.8477064-5.1497189-6.0163258h.7786857v-46.1465186h-1.6139168c1.4434899-2.2223108,3.0954198-4.2979433,4.9286318-6.1987393,7.3328481-7.6031836,17.5662128-12.4089799,28.962021-12.6152389,22.7916162-.4125177,41.6022833,17.7293256,42.0148013,40.5209418Z"/>
      <path class="st13" d="M172.3524846,164.4945585c.4059702,22.4298442-17.4479077,40.9419295-39.877752,41.3478995-11.2149223.2029851-21.4504049-4.1589918-28.9329029-11.3754455-1.8706246-1.8041135-3.5691876-3.7866317-5.0679773-5.9208285h.2421404v-45.4140343h-1.0641139c1.4205774-2.1870358,3.046286-4.229722,4.8503996-6.1003465,7.2164536-7.482498,17.2873842-12.2120118,28.5023062-12.4149969,22.4298445-.4059699,40.9419298,17.4479077,41.3478998,39.8777522Z"/>
      <path class="st158" d="M171.6974391,164.5064143c.3994219,22.0680729-17.1664901,40.2815761-39.2345627,40.6809982-11.0340363.1997109-21.1044303-4.0919115-28.4662431-11.1919707-3.6809064-3.5500299-6.6846674-7.8021687-8.7931656-12.5460545h3.5125251v-37.9608265h-.514311c1.3976649-2.1517613,2.9971523-4.1615008,4.7721673-6.001954,7.1000592-7.3618125,17.0085554-12.0150439,28.0425917-12.2147549,22.0680726-.3994222,40.2815761,17.1664898,40.6809982,39.2345624Z"/>
      <path class="st85" d="M171.0423935,164.5182705c.3928741,21.706301-16.8850719,39.6212223-38.5913731,40.0140964-10.8531504.1964371-20.7584561-4.0248309-27.9995832-11.0084957-3.6205636-3.4918327-6.5750825-7.6742642-8.6490154-12.3403817h2.9135712v-30.5967959h-3.4673591c1.9037202-4.7381112,4.7049535-9.0247195,8.1967862-12.6452831,6.9836648-7.2411272,16.7297266-11.8180761,27.5828772-12.0145132,21.706301-.3928741,39.6212223,16.8850722,40.0140964,38.5913731Z"/>
      <path class="st100" d="M170.3873478,164.5301263c.3863263,21.3445293-16.603654,38.9608688-37.9481833,39.3471948-10.6722647.1931632-20.4124818-3.9577503-27.5329237-10.8250206-3.5602208-3.4336354-6.4654979-7.5463599-8.504865-12.1347087h2.3146171v-30.0868494h-2.8591756c1.871992-4.6591426,4.6265379-8.8743072,8.0601733-12.4345283,6.8672703-7.1204416,16.4508977-11.621108,27.1231624-11.8142712,21.3445293-.3863263,38.9608685,16.6036542,39.3471948,37.9481833Z"/>
      <path class="st116" d="M169.7323024,164.5419824c.3797783,20.9827577-16.3222363,38.3005147-37.304994,38.6802933-10.4913787.1898893-20.0665075-3.89067-27.0662639-10.6415459-3.499878-3.3754382-6.355913-7.4184553-8.3607148-11.9290356h1.7156632v-29.5769027h-2.2509918c1.8402631-4.5801743,4.5481219-8.7238954,7.9235601-12.2237737,6.7508759-6.9997563,16.1720692-11.4241402,26.6634479-11.6140292,20.9827577-.3797786,38.3005147,16.322236,38.6802933,37.3049938Z"/>
      <path class="st93" d="M169.0772567,164.5538386c.3732305,20.6209858-16.0408184,37.640161-36.6618045,38.0133915-10.3104928.1866154-19.720533-3.8235891-26.599604-10.4580708-3.4395352-3.317241-6.2463284-7.290551-8.2165647-11.7233625h1.1167094v-29.0669563h-1.642808c1.8085346-4.5012055,4.469706-8.5734834,7.786947-12.0130189,6.6344814-6.8790708,15.8932403-11.227172,26.2037334-11.4137874,20.6209858-.3732305,37.640161,16.0408184,38.0133915,36.6618045Z"/>
      <circle class="st75" cx="131.7396588" cy="165.2296322" r="36.6885604"/>
      <circle class="st1" cx="131.7396587" cy="165.2296321" r="36.0334076"/>
      <circle class="st7" cx="131.7396587" cy="165.2296322" r="35.3782546"/>
      <circle class="st46" cx="131.7396587" cy="165.2296322" r="34.7231019"/>
      <circle class="st121" cx="131.7396587" cy="165.2296322" r="34.0679489"/>
      <circle class="st150" cx="131.7396587" cy="165.2296322" r="33.4127961"/>
      <circle class="st49" cx="131.7396587" cy="165.2296321" r="32.7576433"/>
      <circle class="st9" cx="131.7396588" cy="165.2296322" r="32.1024903"/>
      <circle class="st22" cx="131.7396588" cy="165.2296322" r="31.4473375"/>
      <circle class="st79" cx="131.7396587" cy="165.2296321" r="30.7921847"/>
      <circle class="st143" cx="131.7396587" cy="165.2296322" r="30.1370317"/>
      <circle class="st84" cx="131.7396587" cy="165.2296322" r="29.481879"/>
      <circle class="st105" cx="131.7396587" cy="165.2296322" r="28.826726"/>
      <circle class="st36" cx="131.7396588" cy="165.2296322" r="28.1715732"/>
      <circle class="st128" cx="131.7396587" cy="165.2296321" r="27.5164204"/>
      <circle class="st74" cx="131.7396588" cy="165.2296322" r="26.8612674"/>
      <circle class="st29" cx="131.7396587" cy="165.2296322" r="26.2061147"/>
      <circle class="st135" cx="131.7396587" cy="165.2296321" r="25.5509617"/>
      <circle class="st3" cx="131.7396587" cy="165.2296322" r="24.8958088"/>
      <circle class="st81" cx="131.7396587" cy="165.2296321" r="24.2406561"/>
      <circle class="st146" cx="131.7396587" cy="165.2296322" r="23.585503"/>
      <circle class="st156" cx="131.7396588" cy="165.2296322" r="22.9303503"/>
      <circle class="st140" cx="131.7396587" cy="165.2296321" r="22.2751974"/>
      <circle class="st63" cx="131.7396588" cy="165.2296322" r="21.6200444"/>
      <circle class="st27" cx="131.7396587" cy="165.2296322" r="20.9648917"/>
      <circle class="st98" cx="131.7396587" cy="165.2296321" r="20.3097388"/>
      <circle class="st86" cx="131.7396588" cy="165.2296322" r="19.6545859"/>
      <circle class="st144" cx="131.7396587" cy="165.2296321" r="18.9994331"/>
      <circle class="st32" cx="131.7396587" cy="165.2296322" r="18.3442801"/>
      <circle class="st109" cx="131.7396587" cy="165.2296322" r="17.6891274"/>
      <circle class="st95" cx="131.7396587" cy="165.2296321" r="17.0339745"/>
      <circle class="st16" cx="131.7396587" cy="165.2296322" r="16.3788216"/>
      <circle class="st33" cx="131.7396587" cy="165.2296321" r="15.7236688"/>
      <circle class="st66" cx="131.7396587" cy="165.2296321" r="15.0685158"/>
      <circle class="st76" cx="131.7396588" cy="165.2296322" r="14.413363"/>
      <circle class="st2" cx="131.7396587" cy="165.2296321" r="13.7582102"/>
      <circle class="st28" cx="131.7396587" cy="165.2296322" r="13.1030572"/>
      <circle class="st108" cx="131.7396587" cy="165.2296321" r="12.4479045"/>
      <circle class="st94" cx="131.7396587" cy="165.2296321" r="11.7927515"/>
      <circle class="st130" cx="131.7396588" cy="165.2296322" r="11.1375987"/>
      <circle class="st125" cx="131.7396587" cy="165.2296321" r="10.4824459"/>
      <circle class="st132" cx="131.7396587" cy="165.2296322" r="9.8272929"/>
      <circle class="st129" cx="131.7396587" cy="165.2296322" r="9.1721402"/>
      <circle class="st12" cx="131.7396587" cy="165.2296321" r="8.5169872"/>
      <circle class="st133" cx="131.7396588" cy="165.2296322" r="7.8618344"/>
      <circle class="st142" cx="131.7396587" cy="165.2296321" r="7.2066816"/>
      <circle class="st38" cx="131.7396587" cy="165.2296321" r="6.5515286"/>
      <circle class="st26" cx="131.7396588" cy="165.2296322" r="5.8963757"/>
      <circle class="st124" cx="131.7396587" cy="165.2296321" r="5.2412229"/>
      <circle class="st102" cx="131.7396587" cy="165.2296322" r="4.5860699"/>
      <circle class="st92" cx="131.7396587" cy="165.2296321" r="3.9309173"/>
      <circle class="st5" cx="131.7396587" cy="165.2296321" r="3.2757643"/>
      <circle class="st160" cx="131.7396588" cy="165.2296322" r="2.6206115"/>
      <circle class="st52" cx="131.7396587" cy="165.2296321" r="1.9654586"/>
      <circle class="st97" cx="131.7396587" cy="165.2296321" r="1.3103057"/>
      <circle class="st112" cx="131.7396587" cy="165.2296322" r=".6551529"/>
    </g>
    <path class="st91" d="M152.9229416,154.7878107h12.0120789c.6261899,0,.8539429.2277054.8539429.8538953v31.8804702h7.1161747v-31.8804702c0-.6261899.2277054-.8538953.8538953-.8538953h12.0121264v-6.3192057h-32.8482183v6.3192057ZM150.6694146,161.6772065c-.3740366-1.5605092-1.9148259-2.5693839-3.5105576-2.2676695-.0738665.0033262-6.0115753,1.4241568-6.3167645,1.4969066-.9451593.2140678-1.945261.4799776-2.2658163-.3793586-.3261921-.874233.2590969-1.2385997,1.0683492-1.7624362.4198259-.2710892.9451474-.6343392,1.5508215-1.23936,1.7216065-1.7222599,2.2755753-4.1614212,2.2755753-5.7249002,0-4.483402-3.7395342-8.1195374-8.2236133-8.1195374s-8.2233103,3.6361354-8.2233103,8.1195374c0,1.5634791.5545627,4.0026404,2.2767394,5.7249002.6050861.6050207,1.1295106.9682708,1.5502453,1.23936.8092464.5238365,1.3939354.8882032,1.0683552,1.7624362-.3205612.8593361-1.3191958.5934264-2.2673012.3793586-.304316-.0727498-6.2414309-1.4935803-6.3161705-1.4969066-1.5957377-.3017144-3.1356301.7071603-3.5096845,2.2676695-.000588.0065812-.4768473,1.9900228-.4812843,2.0076044-.3752245,1.5604854.5391967,3.1598642,2.095352,3.6167719.0673625.0299837,6.5551792,1.5897564,6.5670112,1.5930827,1.2335153.3138315,1.9535173.9247682,1.9535173,2.1136642,0,.5311305-.3087411,1.1076643-.6863297,1.5868578,0,0-7.0506714,8.7376968-7.0864166,8.8050058-.9584405,1.3089261-.7141098,3.1342996.5327045,4.1454077.0041281.0043479,1.5889367,1.2883984,1.6028298,1.300064,1.2453234,1.0118446,3.0809727.8779394,4.166464-.32994.0549544-.0475891,4.4338409-5.4293631,4.897698-6.0000522.465936-.5699288,1.049746-1.4383171,1.8595804-1.4383171.8113134,0,1.3951175.8683883,1.8604595,1.4383171.464754.5706891,4.8427555,5.9524631,4.8983039,6.0000522,1.0842974,1.2078794,2.9205347,1.3417846,4.164985.32994.0153542-.0116656,1.5995807-1.2957161,1.6037029-1.300064,1.2468143-1.0111081,1.492036-2.8364816.5327045-4.1454077-.0366362-.067309-7.0864166-8.8050058-7.0864166-8.8050058-.3790556-.4791935-.6869236-1.0557273-.6869236-1.5868578,0-1.188896.7220809-1.7998327,1.9541231-2.1136642.0109232-.0033262,6.4996546-1.5630989,6.5661202-1.5930827,1.5576284-.4569077,2.4714556-2.0562864,2.095352-3.6167719-.0041459-.0175816-.4789262-2.0010232-.4804052-2.0076044ZM219.5590906,148.468605c-.9677481,0-1.2524749.2277054-1.6224487,1.1670378l-4.3551038,11.2151574c-3.3588451,8.6531863-5.3513626,14.2891807-6.290695,16.9933252-.2562161.7401377-.4269952,1.1386222-.9678431,1.1386222-.5692636,0-.7400426-.3984845-.9962588-1.1386222-.9108217-2.7041445-2.9318499-8.3401389-6.2621843-16.9933252l-4.7820515-12.3821953h-7.6569751l15.5132399,39.0535712h8.0839227l15.5132399-39.0535712h-6.1768423Z"/>
  </g>
</svg>