<?xml version="1.0" encoding="UTF-8"?>
<svg xmlns="http://www.w3.org/2000/svg" version="1.1" viewBox="0 0 320 320">
  <defs>
    <style>
      .cls-1 {
        fill: #ddd;
      }

      .cls-1, .cls-2, .cls-3, .cls-4, .cls-5 {
        stroke-width: 0px;
      }

      .cls-1, .cls-3, .cls-4 {
        fill-rule: evenodd;
      }

      .cls-2 {
        fill: #353535;
      }

      .cls-3 {
        fill: #6a298a;
      }

      .cls-4 {
        fill: #8533ad;
      }

      .cls-5 {
        fill: #ffa600;
      }
    </style>
  </defs>
  <!-- Generator: Adobe Illustrator 28.6.0, SVG Export Plug-In . SVG Version: 1.0.2 Build 62)  -->
  <g>
    <g id="Camada_1">
      <g id="Camada_1-2" data-name="Camada_1">
        <path class="cls-4" d="M200.2,28c0-14.6-11.9-26.5-26.5-26.5h-100.3c-1.2,0-2.4,0-3.9.3h-6.3c-14.6,0-26.5,11.9-26.5,26.5v263.7c0,14.6,11.9,26.5,26.8,26.5h110.4c14.6,0,26.5-12.2,26.5-26.8V28h-.3Z"/>
        <path class="cls-1" d="M171.9,13.4h-9.8c-1.5,0-3,1.2-3,3v4.2c0,3.3-2.7,5.7-5.7,5.7h-59.8c-3.3,0-5.7-2.4-5.7-5.7v-4.2c0-1.5-1.2-3-3-3h-9.8c-10.7,0-19.6,8.9-19.6,19.6v253.9c0,10.7,8.9,19.6,19.6,19.6h96.7c10.7,0,19.6-8.9,19.6-19.6V32.8c0-10.7-8.9-19.6-19.6-19.6v.3Z"/>
        <path class="cls-3" d="M46.9,28v263.7c0,14.6,11.9,26.5,26.8,26.5h-10.1c-14.6,0-26.5-11.6-26.5-26.2V28.3c-.3-14.6,11.6-26.5,26.2-26.5h6.3c-12.8,1.8-22.6,12.8-22.6,26.2ZM138.3,15.8h-2.1c-.3,0-.9.3-.9.9s.3.9.9.9h2.1c.3,0,.9-.3.9-.9s-.3-.9-.9-.9ZM131.4,15.8h-17c-.3,0-.9.3-.9.9s.3.9.9.9h17c.3,0,.9-.3.9-.9s-.3-.9-.9-.9Z"/>
        <rect class="cls-2" x="122.5" y="86" width="160.7" height="160.7" rx="25" ry="25"/>
        <path class="cls-5" d="M244.5,139l-18.8,2.1h0c4.2-4.2,8-8,11-13.1,2.1-3.6,3.3-7.4,2.7-11.6-.9-6.3-6.5-10.4-12.5-9.8-3.9.6-6.8,2.4-9.8,4.8-6.3,5.1-10.1,11.9-13.1,19-.6,1.2-.9,2.4-1.5,3.6-.3-.3-7.7-7.4-11.9-9.5-3.9-2.1-8-3.9-12.8-3.3-3.9.3-6.5,2.1-8.3,5.7-1.8,4.2-1.2,8,1.5,11.3,2.1,2.7,7.7,6.5,9.5,7.7l-16.4,1.8c-4.5.6-7.7,4.5-7.4,8.9l4.5,47c.3,4.2,3.6,7.1,7.7,7.4l70.5,4.2c4.5,0,8.3-3,8.6-7.4l5.1-60.1c.3-5.1-3.9-9.5-9.2-8.9M178.8,132.8c0-.3-.3-.9,0-1.2,0,0,.9-.3,1.2-.3,2.1,0,4.2.9,6.3,2.1,4.2,2.4,7.4,5.4,10.4,8.9l.3.6-2.1-.6c-4.8-1.5-9.2-3.6-13.4-6.5l-2.7-2.7v-.3ZM193.6,161.6c3,0,5.7,2.4,5.7,5.4s-2.4,5.4-5.7,5.4-5.4-2.4-5.4-5.4h0c0-3,2.4-5.4,5.4-5.4ZM188.6,188.1l26.8-26.5,4.8,4.8-26.8,26.5-4.8-4.8ZM215.1,194.1c-3,0-5.7-2.4-5.7-5.4s2.4-5.4,5.7-5.4,5.4,2.4,5.4,5.4-2.4,5.4-5.4,5.4ZM220.4,132.8c-2.7,2.4-5.7,4.8-8.3,6.8,0,0-.6.3-1.2.6.6-3.3,1.8-6.3,3.3-9.2,2.4-5.1,5.7-9.8,10.1-13.1.9-.6,1.8-1.2,2.7-1.5,1.8-.6,3,.3,2.7,2.4,0,1.2-.6,2.7-1.2,3.6-2.1,3.9-4.8,7.1-8,10.1"/>
      </g>
    </g>
  </g>
</svg>