<svg width="320" height="320" viewBox="0 0 320 320" fill="none" xmlns="http://www.w3.org/2000/svg">
<path fill-rule="evenodd" clip-rule="evenodd" d="M162.789 28.4335C162.783 13.8295 150.939 1.99451 136.335 1.99951L36.4598 2.03851C35.1988 2.03951 33.9598 2.13451 32.7458 2.30551L26.4338 2.30751C11.8298 2.31351 -0.00524256 14.1575 -0.000242557 28.7625L0.101757 291.354C0.107757 305.959 11.9528 317.794 26.5568 317.789H136.458C151.062 317.783 162.897 305.631 162.892 291.026L162.789 28.4335Z" fill="#8533AD"/>
<path fill-rule="evenodd" clip-rule="evenodd" d="M134.384 13.7813L124.606 13.7853C123.015 13.7853 121.725 15.0763 121.726 16.6673L121.728 20.7503C121.729 23.8803 119.192 26.4183 116.062 26.4203L56.4714 26.4433C53.3414 26.4443 50.8024 23.9073 50.8014 20.7783L50.8004 16.6953C50.7994 15.1043 49.5094 13.8143 47.9184 13.8153L38.1394 13.8193C27.3554 13.8233 18.6154 22.5693 18.6194 33.3543L18.7184 286.225C18.7224 297.01 27.4684 305.749 38.2544 305.745L134.498 305.707C145.282 305.703 154.022 296.957 154.018 286.172L153.919 33.3013C153.915 22.5163 145.169 13.7773 134.384 13.7813Z" fill="#DDDDDD"/>
<path fill-rule="evenodd" clip-rule="evenodd" d="M10.0255 28.4932L10.1285 291.085C10.1345 305.689 21.9785 317.524 36.5835 317.519L26.5565 317.788C11.9525 317.793 0.107491 305.958 0.102491 291.354L0.000490562 28.7622C-0.00550944 14.1572 11.8295 2.31318 26.4335 2.30718L32.7455 2.30518C19.9005 4.11718 10.0215 15.1492 10.0255 28.4932ZM101.107 16.3973L99.051 16.3983C98.635 16.3983 98.298 16.7353 98.298 17.1513C98.298 17.5673 98.636 17.9043 99.051 17.9043L101.108 17.9033C101.524 17.9033 101.86 17.5653 101.86 17.1493C101.86 16.7343 101.523 16.3973 101.107 16.3973ZM94.3668 16.3997L77.5248 16.4057C77.1088 16.4067 76.7718 16.7437 76.7718 17.1597C76.7718 17.5747 77.1098 17.9117 77.5248 17.9117L94.3668 17.9057C94.7828 17.9047 95.1198 17.5677 95.1198 17.1517C95.1198 16.7367 94.7828 16.3997 94.3668 16.3997Z" fill="#6A298A"/>
<path fill-rule="evenodd" clip-rule="evenodd" d="M249.196 159.53C249.196 209.014 209.081 249.128 159.598 249.128C110.115 249.128 70.0002 209.014 70.0002 159.53C70.0002 110.046 110.115 69.9321 159.598 69.9321C209.081 69.9321 249.196 110.046 249.196 159.53Z" fill="#EF6497"/>
<path fill-rule="evenodd" clip-rule="evenodd" d="M159.598 69.9316C150.898 69.9316 142.488 71.1767 134.534 73.4897L137.12 79.0706C138.568 82.1987 141.732 84.2207 145.181 84.2207H146.664L147.606 85.476C149.275 87.7022 151.931 89.0312 154.713 89.0312H159.075C160.841 89.0312 162.548 88.5117 164.001 87.539L168.858 84.3027C171.314 82.6622 172.789 79.9277 172.809 76.9778L175.252 75.7952C176.929 74.9838 178.26 73.6575 179.134 72.0739C172.846 70.6759 166.309 69.9316 159.598 69.9316ZM70.2363 153.034L70.2769 153.011L70.2771 153.011C70.5256 152.868 70.7733 152.725 71.0086 152.559L77.5091 159.257V162.689C77.5091 166.063 79.1897 169.189 82.0007 171.049L91.2012 177.141L89.7155 181.104C89.0356 182.92 88.8957 184.88 89.3107 186.773L92.3773 200.742C93.0702 203.895 95.2554 206.535 98.2203 207.806L103.083 209.889L99.11 225.625C106.071 231.998 114.04 237.289 122.752 241.226L128.682 231.255L135.367 229.583C139.057 228.661 141.872 225.786 142.714 222.078L143.947 216.657L156.938 200.418C158.353 198.647 159.134 196.423 159.134 194.156V184.589C159.134 180.643 156.806 177.051 153.203 175.437H153.201L141.206 170.071L136.713 164.454C134.8 162.064 131.946 160.692 128.885 160.692H115.61L104.035 155.611V155.61C104.035 153.144 103.151 150.816 101.536 148.985L101.601 149.017C102.987 149.711 104.538 150.078 106.087 150.078H108.701C114.23 150.078 118.728 145.58 118.728 140.05V133.202L144.845 112.97C148.03 110.626 149.541 106.641 148.699 102.766L147.646 97.9198C146.779 93.9374 143.626 90.9007 139.616 90.1826L132.484 88.9058L126.443 77.0034C126.339 76.7982 126.227 76.6014 126.11 76.4065C95.1258 88.9002 72.7311 118.211 70.2363 153.034ZM248.467 164.841L248.988 165.599C247.067 194.296 231.641 219.292 209.005 234.283C208.426 234.667 207.645 234.259 207.619 233.564L206.631 207.237C206.621 206.993 206.513 206.763 206.329 206.601L204.964 205.395C203.37 203.988 202.376 202.048 202.166 199.932L201.226 190.371C201.187 189.97 200.883 189.645 200.486 189.578L185.627 187.073C182.306 186.514 179.289 184.797 177.111 182.229L169.408 173.142C167.986 171.466 167.206 169.339 167.206 167.14V153.251C167.206 150.143 168.22 147.12 170.094 144.639L174.593 138.69C177.116 135.354 180.96 133.42 185.138 133.381C188.413 133.353 193.354 133.317 197.876 133.303C198.663 133.3 199.037 132.373 198.506 131.793C198.297 131.565 198.097 131.326 197.907 131.075C196.761 129.564 196.093 127.806 195.94 125.985C195.901 125.531 195.505 125.191 195.05 125.178L192.952 125.119C192.734 125.113 192.522 125.186 192.355 125.325L188.807 128.283C186.882 129.887 184.455 130.765 181.949 130.765H178.113C172.197 130.765 167.4 125.97 167.4 120.052V116.466C167.4 114.107 168.243 111.947 169.636 110.253C169.846 109.996 169.9 109.657 169.784 109.344C169.465 108.487 169.287 107.562 169.287 106.595V97.8859C169.287 94.6739 171.204 91.9002 173.956 90.6505C174.026 90.6178 174.093 90.5768 174.151 90.5255C174.767 89.9967 175.355 89.4791 175.826 89.0529C175.956 88.9335 176.044 88.7833 176.087 88.6117L176.58 86.6345L176.808 85.4995C177.636 81.3716 181.26 78.4021 185.471 78.4021C190.35 78.4021 194.306 82.3574 194.306 87.237V93.053C194.306 93.7273 195.034 94.1731 195.62 93.8383C196.893 93.108 198.324 92.6641 199.797 92.5587L207.814 91.2241C208.128 91.1718 208.379 90.9536 208.497 90.6589C209.059 89.2543 209.94 88.0055 211.052 87.0038C211.358 86.7287 211.826 86.7213 212.159 86.9628C234.601 103.246 249.197 129.682 249.197 159.53C249.197 161.428 249.13 163.31 249.014 165.179C248.83 165.072 248.643 164.967 248.467 164.841Z" fill="#F0EDFF"/>
<path fill-rule="evenodd" clip-rule="evenodd" d="M140.981 71.8743C146.987 70.605 153.213 69.9316 159.598 69.9316C163.431 69.9316 167.209 70.1732 170.915 70.6414L167.609 72.2409C166.796 72.6335 166.281 73.457 166.281 74.3589V76.9134C166.281 77.7015 165.887 78.4355 165.232 78.8729L160.381 82.1064C159.995 82.3647 159.54 82.5027 159.075 82.5027H154.713C153.972 82.5027 153.274 82.153 152.83 81.5608L150.636 78.6341C150.191 78.0419 149.493 77.6922 148.753 77.6922H145.181C144.264 77.6922 143.431 77.1606 143.045 76.3277L140.981 71.8743ZM71.2153 144.781C72.0678 144.819 72.9127 145.147 73.5665 145.821L83.0496 155.592C83.6838 156.244 84.0382 157.119 84.0382 158.028V162.688C84.0382 163.863 84.6267 164.958 85.6051 165.606L96.8173 173.03C98.1762 173.93 98.7339 175.649 98.1612 177.175L95.8296 183.394C95.5918 184.026 95.5424 184.713 95.6879 185.372L98.7535 199.34C98.996 200.443 99.7551 201.36 100.792 201.805L108.043 204.913C109.525 205.547 110.381 207.113 110.116 208.703L104.661 230.309C108.501 233.293 112.586 235.975 116.889 238.313L123.701 226.859C124.176 226.045 124.96 225.456 125.874 225.228L133.785 223.25C135.065 222.93 136.055 221.917 136.348 220.631L137.734 214.532C137.852 214.016 138.084 213.534 138.414 213.122L151.839 196.341C152.336 195.721 152.605 194.95 152.605 194.156V184.59C152.605 183.21 151.795 181.96 150.536 181.396L137.869 175.731C137.361 175.502 136.914 175.157 136.567 174.722L131.616 168.534C130.952 167.704 129.948 167.221 128.884 167.221H114.974C114.49 167.221 114.011 167.12 113.568 166.925L99.5984 160.793C98.3272 160.235 97.5065 158.978 97.5065 157.59V155.61C97.5065 154.682 97.1381 153.792 96.4816 153.136L90.7766 147.431C90.1209 146.775 89.7516 145.885 89.7516 144.957V141.455C89.7516 138.855 92.4889 137.163 94.8149 138.326L104.523 143.179C105.009 143.423 105.544 143.55 106.087 143.55H108.701C110.633 143.55 112.199 141.983 112.199 140.05V131.713C112.199 130.678 112.658 129.696 113.451 129.031L140.928 107.746C142.069 106.935 142.618 105.52 142.319 104.152L141.267 99.3089C140.966 97.9248 139.86 96.8588 138.464 96.6098L129.848 95.0663C128.768 94.8732 127.841 94.1849 127.345 93.2056L120.62 79.9565C120.463 79.645 120.26 79.3699 120.028 79.1274C94.6125 91.6603 76.0017 115.885 71.2153 144.781ZM182.375 108.009H177.23C176.449 108.009 175.816 107.376 175.816 106.594V97.8859C175.816 97.3655 176.097 96.9104 176.516 96.6651C176.63 96.5979 176.746 96.5315 176.861 96.4651C177.465 96.1165 178.067 95.7697 178.595 95.3137C179.956 94.1414 181.859 92.4458 181.96 92.0429L182.951 88.068L183.352 86.0665C183.485 85.4062 184.065 84.9306 184.739 84.9306H186.363C187.144 84.9306 187.777 85.5638 187.777 86.3445V93.7441V97.442C187.777 97.8234 187.623 98.189 187.35 98.4548L184.217 101.512C183.944 101.778 183.79 102.143 183.79 102.524V106.594C183.79 107.376 183.157 108.009 182.375 108.009ZM245.744 153.471C243.719 151.591 240.593 151.564 238.532 153.406C237.289 154.515 236.147 155.581 235.88 155.974C235.444 156.614 235.494 157.469 235.932 158.109L247.794 175.399L247.795 175.4L247.795 175.401C247.795 175.402 247.795 175.402 247.795 175.402C247.795 175.402 247.794 175.402 247.794 175.402C247.088 179.351 246.118 183.208 244.912 186.96V186.961L240.44 192.997C240.205 193.315 240.079 193.7 240.079 194.095L240.079 198.938V198.941C233.949 211.436 224.996 222.291 214.05 230.68C214.049 230.682 214.044 230.68 214.044 230.677L213.076 204.889C213.138 204.29 212.907 203.698 212.456 203.3L209.285 200.502C208.932 200.19 208.709 199.755 208.663 199.285L207.307 185.504C207.225 184.666 206.591 183.986 205.76 183.846L186.393 180.582C184.797 180.314 183.347 179.488 182.3 178.254L174.177 168.672C173.892 168.336 173.735 167.908 173.735 167.466V152.953C173.735 151.458 174.222 150.006 175.123 148.815L179.8 142.627C181.082 140.933 183.072 139.929 185.197 139.91C190.318 139.866 200.023 139.795 205.247 139.84C207.941 139.863 210.615 139.527 213.22 138.83C218.707 137.36 223.133 131.287 223.133 125.608V121.242C223.133 119.497 221.773 118.055 220.031 117.951L218.417 117.856C217.313 117.791 216.25 118.284 215.586 119.169L209.627 127.115C209.005 127.944 208.027 128.432 206.991 128.432H205.736C203.554 128.432 201.975 126.35 202.563 124.248L202.923 122.962C203.501 120.898 201.985 118.839 199.842 118.78L191.574 118.55C190.773 118.528 189.99 118.799 189.374 119.312L184.38 123.473C183.788 123.967 183.042 124.237 182.271 124.237H177.224C175.404 124.237 173.928 122.762 173.928 120.941V116.47C173.928 114.65 175.404 113.174 177.224 113.174H183.979C184.869 113.174 185.721 112.816 186.342 112.177L198.139 100.052C198.756 99.4189 199.601 99.0617 200.484 99.0617H200.485L210.968 97.3177C212.479 97.0854 213.971 95.6715 214.283 94.1737L214.399 93.6169C214.715 92.0958 215.976 91.1389 217.336 91.0242L217.338 91.0243C217.339 91.0244 217.339 91.0245 217.339 91.0247C217.339 91.0248 217.34 91.0249 217.34 91.0251C236.128 106.877 248.304 130.315 249.144 156.618C249.145 156.623 249.14 156.624 249.137 156.622L245.744 153.471Z" fill="#8533AD"/>
</svg>
