<?xml version="1.0" encoding="UTF-8"?>
<svg id="Camada_1" xmlns="http://www.w3.org/2000/svg" version="1.1" viewBox="0 0 320 320">
  <!-- Generator: Adobe Illustrator 29.3.0, SVG Export Plug-In . SVG Version: 2.1.0 Build 67)  -->
  <defs>
    <style>
      .st0 {
        fill: #8533ad;
      }

      .st0, .st1, .st2, .st3 {
        fill-rule: evenodd;
      }

      .st4 {
        fill: #fff;
      }

      .st1 {
        fill: #4378fb;
      }

      .st2 {
        fill: #ddd;
      }

      .st3 {
        fill: #6a298a;
      }
    </style>
  </defs>
  <g id="Camada_11" data-name="Camada_1">
    <g id="Camada_1-2">
      <g id="Camada_1-21" data-name="Camada_1-2">
        <path class="st0" d="M163.8,30.4c0-14.4-11.7-26.1-26.2-26.1H38.9c-1.2,0-2.5,0-3.7.3h-6.2c-14.4,0-26.1,11.7-26.1,26.2v259.6c0,14.4,11.8,26.1,26.3,26.1h108.7c14.4,0,26.1-12,26.1-26.5l-.2-259.6h0Z"/>
        <path class="st2" d="M135.7,15.9h-9.7c-1.6,0-2.8,1.3-2.8,2.8v4c0,3.1-2.5,5.6-5.6,5.6h-58.9c-3.1,0-5.6-2.5-5.6-5.6v-4c0-1.6-1.3-2.8-2.8-2.8h-9.7c-10.7,0-19.3,8.7-19.3,19.3v250c0,10.7,8.8,19.3,19.4,19.3h95.2c10.7,0,19.3-8.7,19.3-19.3V35.2c-.2-10.7-8.9-19.3-19.5-19.3Z"/>
        <path class="st3" d="M12.7,30.4v259.6c0,14.4,11.8,26.1,26.3,26.1l-9.9.3c-14.4,0-26.1-11.7-26.2-26.1V30.7C2.9,16.2,14.5,4.5,29,4.5h6.2c-12.7,1.8-22.5,12.7-22.5,25.9ZM102.8,18.5h-2c-.4,0-.7.3-.7.7s.3.7.7.7h2c.4,0,.7-.3.7-.7s-.3-.7-.7-.7ZM96.1,18.5h-16.7c-.4,0-.7.3-.7.7s.3.7.7.7h16.7c.4,0,.7-.3.7-.7s-.3-.7-.7-.7Z"/>
        <path class="st1" d="M77.9,66h115.4c13.2,0,23.8,10.6,23.8,23.8v117.2c0,13.2-10.6,23.8-23.8,23.8h-115.4c-13.2,0-23.8-10.6-23.8-23.8v-117.1c0-13.1,10.6-23.9,23.8-23.9Z"/>
        <g>
          <path class="st4" d="M135.1,186.3c-3.4,0-6.8-.6-10.1-1.4-3.1-.8-6-2-8.8-3.6-3-1.6-5.6-3.8-7.8-6.3-.9-1.1-1.5-1.8-1.7-2.4,0-.2-.1-.4-.2-.6,0-.4.1-.6.4-.8.1,0,.1,0,.3,0,.1,0,.2,0,.3,0,.3.1.8.4,1.4.8,2,1.6,4.1,3,6.4,4.1,2.5,1.3,5,2.2,8.1,3,3.5.9,7.1,1.5,10.7,1.7,1.2,0,1.6,0,3.2,0s2.6,0,4.1-.1c6.2-.4,12.3-1.9,16.8-4,.4-.2.7-.3,1.1-.5.8-.4,1-.5,1.3-.6.4-.2.8-.1,1,.2.2.2.3.4.3.7,0,.7-1,1.7-2.8,3.1-4.3,3.2-10.1,5.4-16.6,6.3-1.5.2-3,.3-4.5.4-.9,0-1.9,0-2.8,0h0ZM162.6,182.2c-.2,0-.4-.2-.5-.4-.1-.3,0-.5.2-1.1.2-.3.3-.7.5-1,.7-1.2,1.4-2.7,1.7-3.8.3-1.1.4-1.7.1-2.1-.2-.3-.9-.5-1.9-.6-.4,0-1.8,0-2.2,0-.9,0-1.5.2-2.4.3-.6.1-.7.1-1.1.1s-.5,0-.7,0c-.3-.1-.4-.4-.4-.7,0-.2.2-.5.5-.7.7-.6,1.8-1.2,3-1.6,1.3-.4,2.6-.6,4-.6.8,0,1.5.1,2.3.3,1.2.3,1.9.7,2.2,1.2.2.4.3.8.3,1.4,0,1.1-.2,2.3-.6,3.3-.5,1.6-1.4,3.1-2.7,4.2-.9.9-1.5,1.4-2,1.5-.2,0-.3,0-.5,0h0ZM97.1,169.8c-.1,0-.3-.2-.3-.3h0c0,0,0-11.3,0-11.3,0-10.1,0-11.2,0-11.3,0-.1.2-.3.3-.3h0s3.1,0,3.1,0h0c.1,0,.2.2.3.3,0,.1,0,.2.3,1.4l.2.9h.2v-.2c.3-.4.5-.7.7-1.1.3-.4.7-.7,1.1-1,1.1-.7,2.4-1,3.7-.7,1.3.3,2.5,1.1,3.3,2.5.8,1.3,1.4,3.1,1.6,5,0,.6,0,.7,0,1.5,0,.8,0,1.6-.1,2.4-.3,2.2-1,4.1-2.1,5.3-.2.3-.5.5-.8.8-.7.5-1.5.9-2.3,1-.3,0-1.1,0-1.5,0-1.2-.2-2.2-.8-3-1.9-.2-.3-.4-.6-.6-1,0,0,0,0-.1,0h0v3.8s0,3.8,0,3.8h0c0,.2-.2.3-.3.4,0,0-.3,0-1.9,0s-1.8,0-1.9,0h0ZM104.7,160.8c.6-.1,1.2-.5,1.6-1.1.5-.8.8-1.9.9-3.4,0-.5,0-1.8,0-2.2,0-.8-.2-1.5-.4-2-.4-1.3-1.1-2-2.1-2.1-.3,0-.7,0-1,0-.8.2-1.4.7-1.8,1.5-.3.5-.4,1-.5,1.6-.2,1.1-.3,2.8,0,4.1.1,1.1.4,2,.9,2.6.5.7,1,1,1.8,1.1.2,0,.6,0,.8,0h0ZM167.4,164.7h-.3c-1.3-.1-2.5-.6-3.5-1.4-.5-.4-.9-.8-1.3-1.3-1.1-1.4-1.8-3.1-2-5.1,0-.5,0-.9,0-1.6,0-.7,0-1.4.2-2.1.6-3.6,2.9-6.3,5.9-7,.5-.1,1-.2,1.6-.2.8,0,1.7.1,2.5.4.3.1.6.3.9.4.9.5,1.7,1.3,2.3,2.2.7,1.1,1.2,2.3,1.5,3.6.2.9.2,1.7.2,2.8,0,.7,0,.7,0,.8,0,.1-.2.3-.4.3,0,0-1,0-5,0h-4.9,0c.1,1.6.4,2.5.9,3.3.4.6.9.9,1.5,1.1.2,0,.7,0,1,0,.7,0,1.2-.3,1.6-.7.3-.3.6-.8.7-1.4,0-.3.1-.4.2-.4,0,0,.2-.1.3-.1s3.4.7,3.5.8c.2,0,.3.3.2.4,0,.3-.4,1.2-.7,1.7-.6,1.1-1.6,2-2.8,2.6-.8.4-1.7.6-2.5.7-.2,0-1.3,0-1.5,0h0ZM170.7,153.6c0-.2,0-.7-.2-1-.3-1.4-.8-2.3-1.6-2.7-.6-.3-1.4-.3-2,0-.2.1-.5.3-.6.5-.2.2-.4.5-.6.7-.3.6-.6,1.4-.7,2.3,0,.1,0,.3,0,.3h0s5.7,0,5.7,0h0c0-.1,0-.1,0-.1ZM114.7,164.2c-.1,0-.2-.2-.3-.3,0,0,0-.8,0-8.5s0-8.4,0-8.5c0-.1.1-.2.3-.3h.1s1.5,0,1.5,0c1.6,0,1.6,0,1.8,0,0,0,.2.2.3.3,0,0,.1.6.2,1.1l.2,1.1s0,0,0,0h0s0-.2,0-.2c.2-.4.4-.8.7-1.2.2-.2.5-.5.7-.7.8-.6,1.6-.9,2.7-.9.7,0,1.3.1,1.9.4.2,0,.3.2.4.3,0,0,0,.1,0,.3s0,.2-.4,1.9c-.2.9-.4,1.7-.4,1.8,0,0-.1.2-.2.2,0,0-.1,0-.2,0-.1,0-.2,0-.7-.2-.6-.3-1.1-.4-1.4-.4-.3,0-.6,0-.9,0-.3,0-.6.2-.9.3-.2.1-.5.4-.7.7-.4.6-.6,1.4-.6,2.5,0,.2,0,2.6,0,5.2,0,5.3,0,4.9-.1,5,0,0,0,0-.2.1h-.1s-1.9,0-1.9,0h-1.9s-.1,0-.1,0ZM127.4,164.2c-.2,0-.3-.2-.3-.3,0,0,0-.5,0-8.5v-8.5h0c0-.2.1-.3.3-.3h0s1.8,0,1.8,0c1.9,0,1.9,0,2.1,0,0,0,.2.1.2.2,0,0,0,.5,0,8.5,0,7.7,0,8.5,0,8.6,0,0,0,.1-.1.2-.2.2,0,.2-2.1.2-1.4,0-1.8,0-1.9,0h0ZM135.1,164.2c-.1,0-.3-.2-.3-.3h0v-17h0c0-.2.1-.3.3-.3h0s1.6,0,1.6,0c1.4,0,1.6,0,1.6,0,.2,0,.3.2.3.3,0,0,.2.8.5,2.2h0c0,0,.2,0,.2,0v-.2c.2-.3.3-.6.5-.8.7-1.1,1.7-1.8,2.9-2,.8-.1,1.7,0,2.4.2,1,.3,1.8,1,2.4,1.9.1.2.3.5.4.8h0c0,.1.2.1.2.1v-.2c.7-.9,1.5-1.7,2.3-2.2,1-.6,2.2-.8,3.3-.6,1.2.2,2.2.8,2.9,1.8.2.3.4.5.5.9.4.9.7,1.9.8,3.1,0,.6,0,1.1,0,6.6v5.4s0,0,0,0c0,.1-.1.2-.2.3h0s-3.7,0-3.7,0h0c-.1-.1-.2-.2-.3-.3h0c0,0,0-5.5,0-5.5,0-5.8,0-5.5,0-6-.2-1-.6-1.7-1.3-2-.3-.2-.6-.2-1.1-.2-.6,0-1.1.2-1.5.6-.5.5-.8,1.2-.9,2.3,0,.2,0,.7,0,5.5v5.3s0,0,0,0c0,.1-.1.2-.2.3h0s-3.7,0-3.7,0h0c-.1-.1-.2-.2-.3-.3h0c0,0,0-5.5,0-5.5,0-5.8,0-5.5,0-6-.2-1-.6-1.7-1.3-2-.3-.2-.6-.2-1.1-.2-.6,0-1.1.2-1.5.6-.5.5-.8,1.2-.9,2.3,0,.2,0,.7,0,5.5v5.3s0,0,0,0c0,.1-.1.2-.2.3h0s-1.8,0-1.8,0c-1.5,0-1.9,0-1.9,0h0ZM129,145.1c-.6,0-1.2-.4-1.6-.8-.3-.3-.5-.8-.6-1.2,0-.3,0-.8,0-1,.1-.8.5-1.3,1.1-1.8.9-.6,2.2-.6,3,0,.3.2.6.5.8.8.4.6.4,1.6.2,2.3-.2.7-.8,1.2-1.5,1.5-.4.2-.9.2-1.4.2Z"/>
          <path id="Shape" class="st4" d="M89.6,136.3c-1,0-1.9-.2-2.6-.7-.8-.4-1.3-1.1-1.8-1.9-.4-.8-.6-1.7-.6-2.8s.3-2.3.9-3.3c.6-.9,1.5-1.7,2.7-2.2,1.2-.5,2.5-.8,4.1-.8s1.3,0,1.7.1v-.4c0-1.1-.2-1.9-.6-2.4-.4-.5-1-.8-1.8-.8-1.3,0-2.1.7-2.5,2-.1.4-.3.6-.7.5l-2.9-.5c-.2,0-.4-.1-.4-.3,0-.1,0-.3,0-.6.4-1.4,1.1-2.5,2.3-3.3,1.2-.8,2.7-1.2,4.5-1.2s3.8.6,4.9,1.7c1.1,1.2,1.7,2.8,1.7,5v10.6c0,.2,0,.3-.2.4,0,0-.2.1-.4.1h-2.7c-.3,0-.5-.2-.6-.5l-.4-2h-.2c-.4.9-.9,1.6-1.7,2.1-.7.5-1.6.8-2.7.8h0ZM89.2,130.6c0,.7.2,1.3.6,1.8.4.4.9.7,1.6.7s1.5-.4,2-1.2c.5-.8.7-1.9.7-3.4v-1.1c-.4,0-.8-.1-1.1-.1-1.2,0-2.1.3-2.7.9-.7.6-1,1.4-1,2.4h0ZM101.1,119c0-.2,0-.3.1-.4.1-.1.2-.2.4-.2h2.8c.2,0,.3,0,.4.1.1,0,.2.2.2.4l.4,2.1h.2c.4-1,.9-1.7,1.6-2.2.7-.5,1.6-.8,2.5-.8s1.9.3,2.7.8c.8.5,1.3,1.3,1.7,2.3h.2c.6-1.1,1.3-1.9,2.1-2.4s1.6-.8,2.6-.8,1.9.3,2.7.8c.8.6,1.4,1.4,1.8,2.4.4,1,.6,2.3.6,3.7v10.4c0,.2,0,.3-.2.4,0,0-.2.1-.4.1h-3.4c-.2,0-.3,0-.4-.1,0-.1-.1-.2-.1-.4v-10.1c0-1-.2-1.8-.6-2.4-.4-.5-1-.8-1.7-.8s-1.4.3-1.9,1c-.4.6-.6,1.6-.6,2.8v9.5c0,.2,0,.3-.2.4,0,0-.2.1-.4.1h-3.4c-.2,0-.3,0-.4-.1,0-.1-.1-.2-.1-.4v-10.1c0-1-.2-1.8-.6-2.4-.4-.5-1-.8-1.7-.8s-1.4.3-1.9,1c-.4.6-.6,1.6-.6,2.8v9.5c0,.2,0,.3-.2.4,0,0-.2.1-.4.1h-3.4c-.2,0-.3,0-.4-.1,0-.1-.1-.2-.1-.4v-16.4ZM126.3,131.1c0-1.2.3-2.3.9-3.3.6-.9,1.5-1.7,2.7-2.2,1.2-.5,2.5-.8,4.1-.8s1.3,0,1.7.1v-.4c0-1.1-.2-1.9-.6-2.4-.4-.5-1-.8-1.8-.8-1.3,0-2.1.7-2.5,2-.1.4-.3.6-.7.5l-2.9-.5c-.2,0-.4-.1-.4-.3,0-.1,0-.3,0-.6.4-1.4,1.1-2.5,2.3-3.3,1.2-.8,2.7-1.2,4.5-1.2s3.8.6,4.9,1.7c1.1,1.2,1.7,2.8,1.7,5v10.6c0,.2,0,.3-.2.4,0,0-.2.1-.4.1h-2.7c-.3,0-.5-.2-.6-.5l-.4-2h-.2c-.4.9-.9,1.6-1.7,2.1-.7.5-1.6.8-2.7.8s-1.9-.2-2.6-.7c-.8-.4-1.3-1.1-1.8-1.9-.4-.8-.6-1.7-.6-2.8h0ZM130.9,130.6c0,.7.2,1.3.6,1.8.4.4.9.7,1.6.7s1.5-.4,2-1.2c.5-.8.7-1.9.7-3.4v-1.1c-.4,0-.8-.1-1.1-.1-1.2,0-2.1.3-2.7.9-.7.6-1,1.4-1,2.4h0ZM156,127.2c0-1.7.3-3.3,1-4.7.7-1.4,1.6-2.5,2.7-3.3,1.2-.8,2.5-1.2,3.9-1.2s2.7.4,3.9,1.2c1.2.8,2.1,1.9,2.7,3.3.7,1.4,1,2.9,1,4.7s-.3,3.3-1,4.7c-.7,1.4-1.6,2.5-2.7,3.3-1.2.8-2.4,1.2-3.9,1.2s-2.7-.4-3.9-1.2c-1.2-.8-2.1-1.9-2.7-3.3-.7-1.4-1-3-1-4.7ZM160.7,127.2c0,1.8.3,3.2.8,4.1.5,1,1.2,1.4,2.2,1.4s1.7-.5,2.2-1.4c.5-1,.8-2.3.8-4.1s-.3-3.1-.8-4.1c-.5-1-1.3-1.5-2.2-1.5s-1.7.5-2.2,1.5c-.5,1-.8,2.3-.8,4.1ZM173.5,119c0-.2,0-.3.1-.4.1-.1.2-.2.4-.2h2.8c.2,0,.3,0,.4.1.1,0,.2.2.2.4l.4,2.1h.2c.4-1,.9-1.7,1.7-2.2.7-.5,1.6-.8,2.6-.8s2,.3,2.8.8c.8.6,1.4,1.4,1.8,2.4.4,1,.6,2.3.6,3.7v10.4c0,.2,0,.3-.2.4,0,0-.2.1-.4.1h-3.4c-.2,0-.3,0-.4-.1,0-.1-.1-.2-.1-.4v-10.1c0-1-.2-1.8-.6-2.4-.4-.5-1-.8-1.8-.8s-1.5.3-2,1c-.4.6-.7,1.6-.7,2.8v9.5c0,.2,0,.3-.2.4s-.2.1-.4.1h-3.4c-.2,0-.3,0-.4-.1,0-.1-.1-.2-.1-.4v-16.4ZM154.6,118.4c0,0-.1,0-.2,0,0,0,0,0-.1,0h-11.1c-.2,0-.3,0-.4.2,0,0-.1.2-.1.4v2.4c0,.2,0,.3.1.4.1,0,.2.1.4.1h6.7l-7.2,10.1c-.2.2-.3.5-.3.8h0v2.6h0c0,.2,0,.4.2.5,0,0,.1,0,.2,0,0,0,0,0,.1,0h11.1c.2,0,.3,0,.4-.2,0,0,.1-.2.1-.4v-2.4c0-.2,0-.3-.1-.4-.1,0-.2-.1-.4-.1h-6.7l7.2-10.1c.2-.2.3-.5.3-.8h0v-2.6h0c0-.2,0-.4-.2-.5Z"/>
        </g>
      </g>
    </g>
  </g>
</svg>