<?xml version="1.0" encoding="UTF-8"?>
<svg id="Camada_1" data-name="Camada 1" xmlns="http://www.w3.org/2000/svg" xmlns:xlink="http://www.w3.org/1999/xlink" viewBox="0 0 98.1 57.9">
  <defs>
    <style>
      .cls-1 {
        clip-path: url(#clippath);
      }

      .cls-2 {
        fill: none;
      }

      .cls-2, .cls-3, .cls-4, .cls-5, .cls-6, .cls-7, .cls-8, .cls-9, .cls-10, .cls-11, .cls-12, .cls-13, .cls-14, .cls-15, .cls-16, .cls-17 {
        stroke-width: 0px;
      }

      .cls-3 {
        fill: #00924a;
      }

      .cls-4 {
        fill: #1d1d1b;
      }

      .cls-5 {
        fill: #007ec2;
      }

      .cls-6 {
        fill: #fcde3a;
      }

      .cls-7 {
        fill: #1b3270;
      }

      .cls-8, .cls-17 {
        fill: #229a48;
      }

      .cls-9 {
        fill: #007743;
      }

      .cls-10 {
        fill: #005fa7;
      }

      .cls-11 {
        fill: #0076bb;
      }

      .cls-12 {
        fill: #609;
      }

      .cls-13 {
        fill: #eeb546;
      }

      .cls-14 {
        fill: #d23c49;
      }

      .cls-15 {
        fill: #ffed3b;
      }

      .cls-16 {
        fill: #fff;
      }

      .cls-17 {
        fill-rule: evenodd;
      }
    </style>
    <clipPath id="clippath">
      <rect class="cls-2" width="98.1" height="57.9"/>
    </clipPath>
  </defs>
  <g class="cls-1">
    <path class="cls-12" d="M.28,1.44h2.94c1.77,0,2.69.8,2.69,2.36s-.92,2.36-2.69,2.36h-1.45c-.12,0-.16.04-.16.16v2.41H.28V1.44ZM3.22,5.03c.93,0,1.34-.36,1.34-1.21s-.41-1.21-1.34-1.21h-1.45c-.12,0-.16.04-.16.16v2.26h1.61Z"/>
    <path class="cls-12" d="M6.47,7.38c0-.85.49-1.47,2.06-1.68l1.2-.17v-.12c0-.65-.37-.87-.95-.87s-1.02.24-1.35.55l-.8-.86c.49-.46,1.17-.81,2.29-.81,1.48,0,2.09.81,2.09,1.96v3.36h-1.09c-.12,0-.16-.04-.16-.16v-.36c0-.1-.03-.13-.09-.13-.05,0-.1.04-.16.13-.29.38-.74.63-1.47.63-.95,0-1.56-.6-1.56-1.46M8.59,7.76c.81,0,1.14-.42,1.14-1.01v-.23c0-.14-.03-.17-.15-.15l-.93.14c-.64.1-.87.31-.87.67,0,.27.17.58.81.58"/>
    <path class="cls-12" d="M12.74,7.17v-2.56h-.99v-1.08h.83c.12,0,.16-.04.16-.16v-1.48h1.12c.12,0,.16.04.16.16v1.48h1.45v.92c0,.12-.04.16-.16.16h-1.13c-.12,0-.16.04-.16.16v2.26c0,.47.16.69.66.69.24,0,.46-.07.66-.2l.46,1.02c-.31.18-.73.3-1.29.3-1.21,0-1.77-.5-1.77-1.67"/>
    <path class="cls-12" d="M16.52,3.52h1.09c.12,0,.16.04.16.16v.52c0,.1.03.13.08.13.05,0,.1-.03.15-.13.26-.45.51-.79,1.27-.79h.21v1.36h-.37c-1.02,0-1.32.46-1.32,1.36v2.6h-1.28V3.52Z"/>
    <path class="cls-12" d="M20.07,6.13c0-1.65,1.04-2.71,2.62-2.71s2.62,1.06,2.62,2.71-1.04,2.71-2.62,2.71-2.62-1.06-2.62-2.71M22.68,7.76c.8,0,1.31-.6,1.31-1.64s-.51-1.64-1.31-1.64-1.31.6-1.31,1.64.51,1.64,1.31,1.64"/>
    <path class="cls-12" d="M26.02,6.13c0-1.64,1.03-2.71,2.68-2.71.83,0,1.52.28,2,.86l-.88.79c-.28-.37-.64-.57-1.15-.57-.84,0-1.34.57-1.34,1.64s.5,1.64,1.34,1.64c.51,0,.87-.21,1.15-.57l.88.79c-.48.58-1.17.86-2,.86-1.66,0-2.68-1.07-2.68-2.71"/>
    <path class="cls-12" d="M32.29,1.11c.47,0,.81.35.81.82s-.34.82-.81.82-.81-.35-.81-.82.34-.82.81-.82M31.65,3.52h1.12c.12,0,.16.04.16.16v5.05h-1.28V3.52Z"/>
    <path class="cls-12" d="M34.31,3.52h1.09c.12,0,.16.04.16.16v.41c0,.1.03.13.08.13.05,0,.1-.04.17-.13.16-.21.58-.68,1.5-.68,1.13,0,1.85.73,1.85,2.25v3.06h-1.28v-2.8c0-.91-.34-1.35-1.11-1.35-.83,0-1.19.52-1.19,1.35v2.8h-1.28V3.52Z"/>
    <path class="cls-12" d="M40.19,7.38c0-.85.49-1.47,2.06-1.68l1.2-.17v-.12c0-.65-.37-.87-.95-.87s-1.02.24-1.35.55l-.8-.86c.49-.46,1.17-.81,2.29-.81,1.48,0,2.09.81,2.09,1.96v3.36h-1.09c-.12,0-.16-.04-.16-.16v-.36c0-.1-.03-.13-.08-.13-.05,0-.1.04-.17.13-.29.38-.74.63-1.47.63-.95,0-1.56-.6-1.56-1.46M42.31,7.76c.81,0,1.14-.42,1.14-1.01v-.23c0-.14-.03-.17-.15-.15l-.92.14c-.64.1-.87.31-.87.67,0,.27.17.58.81.58"/>
    <path class="cls-12" d="M45.73,6.13c0-1.68.94-2.69,2.34-2.69.73,0,1.1.29,1.36.64.05.07.09.09.14.09.06,0,.09-.03.09-.13V1.27c0-.12.04-.16.16-.16h1.12v7.62h-1.09c-.12,0-.16-.04-.16-.16v-.42c0-.1-.03-.13-.08-.13-.05,0-.08.02-.14.09-.39.47-.86.69-1.5.69-1.18,0-2.23-.86-2.23-2.69M48.37,7.74c.81,0,1.33-.57,1.33-1.61s-.53-1.61-1.33-1.61-1.33.57-1.33,1.61.53,1.61,1.33,1.61"/>
    <path class="cls-12" d="M51.98,6.13c0-1.65,1.04-2.71,2.62-2.71s2.62,1.06,2.62,2.71-1.04,2.71-2.62,2.71-2.62-1.06-2.62-2.71M54.6,7.76c.8,0,1.31-.6,1.31-1.64s-.51-1.64-1.31-1.64-1.31.6-1.31,1.64.51,1.64,1.31,1.64"/>
    <path class="cls-12" d="M58.27,3.52h1.09c.12,0,.16.04.16.16v.52c0,.1.03.13.08.13.05,0,.1-.03.15-.13.26-.45.51-.79,1.27-.79h.21v1.36h-.37c-1.02,0-1.32.46-1.32,1.36v2.6h-1.28V3.52Z"/>
    <path class="cls-12" d="M61.8,7.38c0-.85.49-1.47,2.06-1.68l1.2-.17v-.12c0-.65-.37-.87-.95-.87s-1.02.24-1.35.55l-.8-.86c.49-.46,1.17-.81,2.29-.81,1.48,0,2.09.81,2.09,1.96v3.36h-1.09c-.12,0-.16-.04-.16-.16v-.36c0-.1-.03-.13-.08-.13-.05,0-.1.04-.17.13-.29.38-.75.63-1.47.63-.95,0-1.56-.6-1.56-1.46M63.92,7.76c.81,0,1.14-.42,1.14-1.01v-.23c0-.14-.03-.17-.15-.15l-.93.14c-.64.1-.87.31-.87.67,0,.27.17.58.81.58"/>
    <path class="cls-12" d="M70.09,6.13c0-1.65,1.04-2.71,2.62-2.71s2.62,1.06,2.62,2.71-1.04,2.71-2.62,2.71-2.62-1.06-2.62-2.71M72.71,7.76c.8,0,1.31-.6,1.31-1.64s-.51-1.64-1.31-1.64-1.31.6-1.31,1.64.51,1.64,1.31,1.64"/>
    <path class="cls-12" d="M76.78,4.61h-.99v-1.08h.83c.12,0,.16-.04.16-.16v-.58c0-1.2.6-1.78,1.91-1.78.54,0,.95.13,1.18.28l-.46.99c-.18-.1-.39-.15-.63-.15-.53,0-.72.25-.72.7v.69h1.45v.92c0,.12-.04.16-.16.16h-1.13c-.12,0-.16.04-.16.16v3.97h-1.28v-4.13ZM80.99,1.11c.47,0,.81.35.81.82s-.34.82-.81.82-.81-.35-.81-.82.34-.82.81-.82M80.35,3.52h1.12c.12,0,.16.04.16.16v5.05h-1.28V3.52Z"/>
    <path class="cls-12" d="M82.68,6.13c0-1.64,1.03-2.71,2.68-2.71.83,0,1.52.28,2,.86l-.88.79c-.28-.37-.64-.57-1.15-.57-.83,0-1.34.57-1.34,1.64s.51,1.64,1.34,1.64c.51,0,.87-.21,1.15-.57l.88.79c-.48.58-1.17.86-2,.86-1.66,0-2.68-1.07-2.68-2.71"/>
    <path class="cls-12" d="M88.95,1.11c.47,0,.81.35.81.82s-.34.82-.81.82-.81-.35-.81-.82.34-.82.81-.82M88.31,3.52h1.12c.12,0,.16.04.16.16v5.05h-1.28V3.52Z"/>
    <path class="cls-12" d="M90.67,7.38c0-.85.49-1.47,2.06-1.68l1.2-.17v-.12c0-.65-.37-.87-.95-.87s-1.02.24-1.35.55l-.8-.86c.5-.46,1.18-.81,2.29-.81,1.48,0,2.09.81,2.09,1.96v3.36h-1.09c-.12,0-.16-.04-.16-.16v-.36c0-.1-.03-.13-.08-.13-.05,0-.1.04-.17.13-.29.38-.74.63-1.47.63-.95,0-1.56-.6-1.56-1.46M92.79,7.76c.81,0,1.14-.42,1.14-1.01v-.23c0-.14-.03-.17-.15-.15l-.92.14c-.64.1-.87.31-.87.67,0,.27.17.58.81.58"/>
    <path class="cls-12" d="M96.54,8.58V1.11h1.12c.1,0,.15.06.15.15v7.47h-1.12c-.1,0-.15-.06-.15-.15"/>
    <path class="cls-8" d="M73.53,52.61h2.32c.51,0,.88.1,1.11.3.23.2.35.5.35.89v.09c0,.47-.19.79-.56.97.22.09.4.22.52.39.12.18.18.41.18.7v.12c0,.47-.14.81-.42,1.02-.28.21-.71.31-1.27.31h-2.23v-4.79ZM76.06,53.99c0-.14-.04-.25-.11-.31-.07-.06-.2-.09-.37-.09h-.86v.88h.83c.18,0,.31-.03.39-.1s.11-.17.11-.32v-.07ZM74.73,56.41h.9c.21,0,.35-.03.44-.1.09-.06.13-.19.13-.37v-.09c0-.19-.04-.32-.13-.38-.09-.07-.24-.1-.46-.1h-.88v1.03Z"/>
    <path class="cls-8" d="M82.21,57.4h-1.4l-.79-1.56h-.64v1.56h-1.29v-4.79h2c.34,0,.63.03.87.08.24.06.44.14.59.27.15.12.26.28.33.47.07.19.11.43.11.71v.16c0,.34-.07.62-.21.83s-.34.37-.6.48l1.02,1.8ZM80.71,54.2c0-.21-.06-.36-.15-.44-.1-.08-.27-.12-.51-.12h-.66v1.16h.66c.25,0,.42-.04.51-.12.1-.08.15-.22.15-.44v-.05Z"/>
    <path class="cls-8" d="M85.67,56.35h-1.59l-.32,1.05h-1.31l1.68-4.79h1.57l1.68,4.79h-1.37l-.33-1.05ZM84.37,55.35h1.01l-.5-1.62-.5,1.62Z"/>
    <rect class="cls-8" x="92.02" y="52.61" width="1.31" height="4.79"/>
    <polygon class="cls-8" points="95.45 52.61 95.45 56.29 97.63 56.29 97.26 57.4 94.14 57.4 94.14 52.61 95.45 52.61"/>
    <path class="cls-8" d="M87.58,53.99c0-.22.03-.42.1-.6.06-.17.17-.32.32-.44s.34-.21.57-.27c.23-.06.52-.08.86-.08.12,0,1.57,0,1.78,0l-.34,1.05c-.37,0-.53,0-.77-.01-.25,0-.46,0-.65,0-.21,0-.35.02-.42.07-.07.05-.1.13-.1.26,0,.06,0,.11.01.15,0,.04.03.07.06.1.03.03.07.05.12.06.05.02.12.03.2.05l.75.13c.25.05.45.1.62.18.16.07.29.17.39.28.1.11.17.25.21.4.04.15.06.33.06.53v.11c0,.25-.03.47-.1.65-.07.18-.17.33-.33.45-.15.12-.35.2-.6.25-.25.05-.56.07-.93.07-.12,0-1.21,0-1.44,0l-.37-1.05c.35,0,.85.01,1.12.01h.7c.22,0,.37-.02.45-.06.08-.04.11-.14.11-.28,0-.07,0-.12-.02-.17-.01-.04-.03-.08-.06-.11-.03-.03-.07-.05-.13-.07s-.13-.04-.21-.05l-.6-.1c-.28-.05-.51-.11-.68-.18-.18-.07-.31-.17-.41-.28-.1-.11-.17-.24-.21-.39-.04-.15-.06-.33-.06-.54v-.11Z"/>
    <path class="cls-5" d="M84.87,48.72c-1.63-1.46-3.22-2.1-4.55-2.64-1.54-.62-2.65-1.07-3.55-2.57-.61-1.01-.93-2.19-.93-3.41v-8.84c0-1.22-.27-2.39-.79-3.48-.08-.17-.17-.33-.26-.5,1.87-.66,3.19-1.77,4.39-2.78,1.69-1.42,3.02-2.54,5.69-2.54s4.06,1.17,5.54,2.41l.15.13c1.21,1.01,2.52,2.12,4.39,2.78-.68,1.19-1.06,2.56-1.06,3.98v8.84c0,1.23-.32,2.41-.93,3.41-.86,1.43-1.83,1.87-3.47,2.54l-.08.03c-1.33.54-2.92,1.18-4.55,2.64"/>
    <path class="cls-16" d="M91.46,30.05v8.64h-.08l-1.73-1.74c-.24-.24-.57-.38-.91-.38h-1.66v1.66c0,.34.14.67.38.91l1.74,1.73v.08h-8.64v-.08l1.74-1.73c.24-.24.38-.57.38-.91v-1.66h-1.66c-.34,0-.67.14-.91.38l-1.73,1.74h-.08v-8.64h.08l1.73,1.74c.24.24.57.38.91.38h1.66v-1.66c0-.34-.14-.67-.38-.91l-1.74-1.73v-.08h8.64v.08l-1.74,1.73c-.24.24-.38.57-.38.91v1.66h1.66c.34,0,.67-.14.91-.38l1.73-1.74h.08Z"/>
    <path class="cls-7" d="M81.52,34.57c0,.14,0,.25.03.34s.05.16.1.21c.05.05.12.08.2.1.08.02.19.03.33.03h.4c.06,0,.14,0,.23,0,.09,0,.19,0,.31,0l-.14.75c-.1,0-.19,0-.26,0-.07,0-.14,0-.19,0h-.41c-.28,0-.51-.02-.7-.07-.19-.05-.35-.13-.47-.24-.12-.11-.21-.26-.26-.44-.06-.18-.08-.41-.08-.68v-.4c0-.26.03-.48.08-.66.05-.18.14-.33.26-.44.12-.11.28-.19.47-.25.19-.05.42-.08.69-.08h.41c.07,0,.15,0,.24,0,.09,0,.2,0,.32,0l-.14.75c-.15,0-.27,0-.37,0h-.41c-.13,0-.24.01-.33.03-.08.02-.15.06-.2.11-.05.05-.08.12-.1.21-.02.09-.03.2-.03.34v.41Z"/>
    <path class="cls-7" d="M83.56,32.75h1.65c.35,0,.6.07.75.2.16.14.23.34.23.6v.06c0,.32-.12.53-.38.66.15.06.27.15.35.27.08.12.12.28.12.47v.08c0,.32-.1.55-.29.69-.19.14-.48.21-.86.21h-1.59v-3.24ZM85.36,33.68c0-.1-.02-.17-.07-.21-.05-.04-.13-.06-.25-.06h-.66v.6h.65c.12,0,.21-.02.26-.07.05-.04.07-.12.07-.22v-.05ZM84.37,35.32h.69c.14,0,.24-.02.29-.07.06-.04.09-.13.09-.25v-.06c0-.13-.03-.21-.09-.26-.06-.04-.16-.07-.31-.07h-.68v.7Z"/>
    <polygon class="cls-7" points="89.13 32.75 89 33.46 87.54 33.46 87.54 34.09 88.92 34.09 88.8 34.77 87.54 34.77 87.54 35.99 86.69 35.99 86.69 32.75 89.13 32.75"/>
    <rect class="cls-8" x="76.24" y="32.16" width="2.04" height="2.21"/>
    <rect class="cls-8" x="91.46" y="34.37" width="2.04" height="2.21"/>
    <path class="cls-6" d="M95.46,32.16h-1.57v-.9c0-1.42.37-2.78,1.06-3.98-1.87-.66-3.19-1.77-4.39-2.78-1.69-1.42-3.02-2.54-5.69-2.54v-1.57c-.83,0-1.55.1-2.21.26v1.63c-1.35.43-2.33,1.25-3.48,2.22-1.21,1.01-2.53,2.12-4.39,2.78.69,1.2,1.06,2.56,1.06,3.98v3.1h-1.57v2.21h1.57v3.53c0,1.23.32,2.41.92,3.41.9,1.5,2.01,1.95,3.55,2.57,1.33.54,2.92,1.18,4.55,2.64v2.24c.74-.86,1.48-1.48,2.21-1.97v-1.84c.83-.46,1.63-.78,2.35-1.08,1.54-.62,2.65-1.07,3.55-2.57.61-1.01.92-2.19.92-3.41v-5.73h1.57v-2.2ZM93.49,40.1c0,1.16-.3,2.27-.87,3.21-.83,1.38-1.84,1.79-3.36,2.4-.66.27-1.41.57-2.2.99v-5.75h-2.21v7.23c-1.59-1.34-3.14-1.97-4.4-2.48-1.52-.62-2.53-1.02-3.36-2.4-.57-.94-.87-2.05-.87-3.21v-3.53h2.04v-2.21h-2.04v-3.1c0-1.31-.31-2.6-.89-3.76,1.71-.7,2.96-1.75,4.08-2.69,1.11-.93,2.02-1.69,3.22-2.1v5.07h2.21v-5.41c2.52,0,3.74,1.03,5.43,2.44,1.12.94,2.37,1.99,4.08,2.69-.58,1.16-.89,2.45-.89,3.76v.9h-2.04v2.2h2.04v5.73Z"/>
    <path class="cls-8" d="M87.07,22.71c-.63-.22-1.34-.34-2.21-.34h0v5.41h2.21v-5.07Z"/>
    <path class="cls-8" d="M82.66,46.7c.71.38,1.45.85,2.21,1.49v-7.23h-2.21v5.75Z"/>
    <path class="cls-7" d="M84.87,21.97c2.67,0,4,1.12,5.69,2.54,1.21,1.01,2.52,2.12,4.39,2.78-.68,1.2-1.05,2.56-1.05,3.98v.9h1.57v-.9c0-2,.92-3.8,2.35-4.98-3.05-.22-4.72-1.69-6.4-3.11-1.69-1.42-3.4-2.78-6.54-2.78h0v1.57h0"/>
    <path class="cls-7" d="M75.84,31.26c0-1.42-.37-2.78-1.05-3.98,1.87-.66,3.19-1.77,4.39-2.78,1.15-.96,2.13-1.79,3.48-2.22v-1.63c-4.32,1.08-5.44,5.24-10.74,5.62.72.59,1.31,1.33,1.72,2.18.41.85.64,1.8.64,2.8v3.1h1.57v-3.1Z"/>
    <path class="cls-7" d="M80.32,46.08c-1.54-.62-2.65-1.07-3.55-2.57-.6-1.01-.92-2.19-.92-3.41v-3.53h-1.57v3.53c0,1.48.38,2.95,1.15,4.22,2.31,3.83,5.82,2.44,9.44,6.63v-2.24c-1.63-1.45-3.22-2.1-4.55-2.64"/>
    <path class="cls-7" d="M93.89,40.1c0,1.23-.32,2.41-.92,3.41-.9,1.5-2.01,1.95-3.55,2.57-.72.29-1.51.61-2.35,1.08v1.84c1.04-.7,2.06-1.1,3.01-1.49,1.62-.66,3.08-1.27,4.23-3.18.76-1.27,1.15-2.74,1.15-4.22v-5.73h-1.57v5.73Z"/>
    <path class="cls-8" d="M42.01,52.61h2.32c.51,0,.88.1,1.11.3.23.2.35.5.35.89v.09c0,.47-.19.79-.56.97.22.09.4.22.52.39.12.18.18.41.18.7v.12c0,.47-.14.81-.42,1.02-.28.21-.71.31-1.27.31h-2.23v-4.79ZM44.55,53.99c0-.14-.04-.25-.11-.31-.07-.06-.2-.09-.37-.09h-.85v.88h.83c.18,0,.31-.03.39-.1.07-.07.11-.17.11-.32v-.07ZM43.21,56.41h.9c.21,0,.35-.03.44-.1.08-.06.13-.19.13-.37v-.09c0-.19-.04-.32-.13-.38-.09-.07-.24-.1-.45-.1h-.88v1.03Z"/>
    <path class="cls-8" d="M50.69,57.4h-1.4l-.79-1.56h-.64v1.56h-1.29v-4.79h2.01c.34,0,.63.03.87.08.24.06.44.14.59.27.15.12.26.28.33.47.07.19.1.43.1.71v.16c0,.34-.07.62-.21.83-.14.21-.34.37-.6.48l1.02,1.8ZM49.19,54.2c0-.21-.06-.36-.15-.44-.1-.08-.27-.12-.51-.12h-.66v1.16h.66c.25,0,.42-.04.51-.12.1-.08.15-.22.15-.44v-.05Z"/>
    <path class="cls-8" d="M54.16,56.35h-1.59l-.32,1.05h-1.31l1.67-4.79h1.58l1.68,4.79h-1.37l-.33-1.05ZM52.85,55.35h1.01l-.5-1.62-.51,1.62Z"/>
    <rect class="cls-8" x="60.5" y="52.61" width="1.31" height="4.79"/>
    <polygon class="cls-8" points="63.93 52.61 63.93 56.29 66.11 56.29 65.74 57.4 62.63 57.4 62.63 52.61 63.93 52.61"/>
    <path class="cls-8" d="M56.06,53.99c0-.22.03-.42.1-.6.06-.17.17-.32.32-.44s.34-.21.57-.27c.23-.06.52-.08.86-.08.12,0,1.57,0,1.77,0l-.34,1.05c-.37,0-.52,0-.77-.01-.25,0-.47,0-.65,0-.21,0-.35.02-.42.07-.07.05-.1.13-.1.26,0,.06,0,.11.01.15,0,.04.03.07.06.1.03.03.07.05.12.06.05.02.12.03.2.05l.75.13c.25.05.45.1.62.18.16.07.3.17.39.28.1.11.17.25.21.4.04.15.06.33.06.53v.11c0,.25-.03.47-.1.65-.07.18-.17.33-.33.45-.15.12-.35.2-.6.25-.25.05-.56.07-.93.07-.12,0-1.21,0-1.44,0l-.37-1.05c.35,0,.85.01,1.12.01h.7c.22,0,.37-.02.45-.06.08-.04.11-.14.11-.28,0-.07,0-.12-.02-.17-.01-.04-.03-.08-.06-.11-.03-.03-.07-.05-.13-.07-.06-.02-.13-.04-.21-.05l-.6-.1c-.28-.05-.51-.11-.68-.18-.17-.07-.31-.17-.41-.28-.1-.11-.17-.24-.21-.39-.04-.15-.06-.33-.06-.54v-.11Z"/>
    <polygon class="cls-17" points="54.65 18.2 54.17 16.67 55.41 15.72 55.41 15.66 53.85 15.66 53.37 14.13 53.31 14.13 52.84 15.66 51.28 15.66 51.28 15.73 52.51 16.67 52.04 18.2 52.13 18.2 53.34 17.29 54.56 18.2 54.65 18.2"/>
    <polygon class="cls-17" points="48.73 19.82 48.24 18.29 49.48 17.35 49.48 17.28 47.93 17.28 47.44 15.75 47.39 15.75 46.91 17.28 45.35 17.28 45.35 17.35 46.59 18.29 46.11 19.82 46.2 19.82 47.41 18.91 48.64 19.82 48.73 19.82"/>
    <polygon class="cls-17" points="57.98 19.82 58.46 18.29 57.22 17.35 57.22 17.28 58.78 17.28 59.26 15.75 59.32 15.75 59.79 17.28 61.35 17.28 61.35 17.35 60.12 18.29 60.59 19.82 60.5 19.82 59.29 18.91 58.07 19.82 57.98 19.82"/>
    <polygon class="cls-17" points="43.78 23.45 43.29 21.92 44.53 20.97 44.53 20.91 42.98 20.91 42.49 19.38 42.44 19.38 41.96 20.91 40.41 20.91 40.41 20.98 41.64 21.92 41.16 23.45 41.25 23.45 42.46 22.54 43.69 23.45 43.78 23.45"/>
    <polygon class="cls-17" points="65.53 23.45 65.04 21.92 66.28 20.97 66.28 20.91 64.73 20.91 64.24 19.38 64.19 19.38 63.71 20.91 62.16 20.91 62.16 20.98 63.39 21.92 62.91 23.45 63 23.45 64.21 22.54 65.44 23.45 65.53 23.45"/>
    <path class="cls-5" d="M53.35,48.72c-1.63-1.46-3.22-2.1-4.55-2.64-1.54-.62-2.65-1.07-3.55-2.57-.6-1.01-.92-2.19-.92-3.41v-8.84c0-1.22-.27-2.39-.79-3.48-.08-.17-.17-.33-.26-.5,1.87-.66,3.19-1.77,4.39-2.78,1.69-1.42,3.02-2.54,5.69-2.54s4.06,1.17,5.54,2.41l.15.13c1.21,1.01,2.52,2.12,4.39,2.78-.68,1.19-1.06,2.56-1.06,3.98v8.84c0,1.23-.32,2.41-.92,3.41-.86,1.43-1.83,1.87-3.48,2.54l-.08.03c-1.33.54-2.92,1.18-4.55,2.64"/>
    <path class="cls-16" d="M59.94,30.05v8.64h-.08l-1.73-1.74c-.24-.24-.57-.38-.91-.38h-1.66v1.66c0,.34.14.67.38.91l1.74,1.73v.08h-8.64v-.08l1.74-1.73c.24-.24.38-.57.38-.91v-1.66h-1.66c-.34,0-.67.14-.92.38l-1.73,1.74h-.08v-8.64h.08l1.73,1.74c.24.24.57.38.92.38h1.66v-1.66c0-.34-.14-.67-.38-.91l-1.74-1.73v-.08h8.64v.08l-1.74,1.73c-.24.24-.38.57-.38.91v1.66h1.66c.34,0,.67-.14.91-.38l1.73-1.74h.08Z"/>
    <path class="cls-7" d="M50,34.57c0,.14,0,.25.03.34.02.09.05.16.1.21.05.05.12.08.2.1.08.02.19.03.33.03h.4c.07,0,.14,0,.23,0,.09,0,.19,0,.31,0l-.14.75c-.1,0-.19,0-.26,0-.07,0-.14,0-.19,0h-.41c-.28,0-.51-.02-.7-.07-.19-.05-.35-.13-.47-.24-.12-.11-.21-.26-.26-.44-.06-.18-.08-.41-.08-.68v-.4c0-.26.03-.48.08-.66.05-.18.14-.33.26-.44.12-.11.28-.19.47-.25.19-.05.42-.08.69-.08h.41c.07,0,.15,0,.24,0,.09,0,.2,0,.32,0l-.14.75c-.14,0-.27,0-.37,0h-.41c-.13,0-.24.01-.33.03-.09.02-.15.06-.2.11-.05.05-.08.12-.1.21-.02.09-.03.2-.03.34v.41Z"/>
    <path class="cls-7" d="M52.04,32.75h1.65c.35,0,.6.07.75.2.16.14.23.34.23.6v.06c0,.32-.12.53-.38.66.15.06.27.15.35.27.08.12.12.28.12.47v.08c0,.32-.1.55-.29.69-.19.14-.48.21-.86.21h-1.59v-3.24ZM53.84,33.68c0-.1-.02-.17-.07-.21-.05-.04-.13-.06-.25-.06h-.66v.6h.65c.12,0,.21-.02.26-.07.05-.04.08-.12.08-.22v-.05ZM52.85,35.32h.69c.14,0,.24-.02.3-.07.06-.04.09-.13.09-.25v-.06c0-.13-.03-.21-.09-.26-.06-.04-.16-.07-.31-.07h-.68v.7Z"/>
    <polygon class="cls-7" points="57.62 32.75 57.49 33.46 56.03 33.46 56.03 34.09 57.41 34.09 57.28 34.77 56.03 34.77 56.03 35.99 55.17 35.99 55.17 32.75 57.62 32.75"/>
    <rect class="cls-8" x="44.73" y="32.16" width="2.04" height="2.21"/>
    <rect class="cls-8" x="59.94" y="34.37" width="2.04" height="2.21"/>
    <path class="cls-6" d="M63.94,32.16h-1.57v-.9c0-1.42.37-2.78,1.06-3.98-1.87-.66-3.19-1.77-4.39-2.78-1.69-1.42-3.02-2.54-5.69-2.54v-1.57c-.83,0-1.55.1-2.21.26v1.63c-1.35.43-2.33,1.25-3.48,2.22-1.2,1.01-2.52,2.12-4.39,2.78.69,1.2,1.06,2.56,1.06,3.98v3.1h-1.57v2.21h1.57v3.53c0,1.23.32,2.41.92,3.41.9,1.5,2.01,1.95,3.55,2.57,1.33.54,2.92,1.18,4.55,2.64v2.24c.74-.86,1.48-1.48,2.21-1.97v-1.84c.83-.46,1.63-.78,2.35-1.08,1.54-.62,2.65-1.07,3.55-2.57.6-1.01.92-2.19.92-3.41v-5.73h1.57v-2.2ZM61.98,40.1c0,1.16-.3,2.27-.87,3.21-.83,1.38-1.84,1.79-3.35,2.4-.66.27-1.41.57-2.2.99v-5.75h-2.21v7.23c-1.59-1.34-3.14-1.97-4.4-2.48-1.52-.62-2.53-1.02-3.36-2.4-.57-.94-.87-2.05-.87-3.21v-3.53h2.04v-2.21h-2.04v-3.1c0-1.31-.31-2.6-.89-3.76,1.71-.7,2.96-1.75,4.08-2.69,1.11-.93,2.02-1.69,3.22-2.1v5.07h2.21v-5.41c2.52,0,3.74,1.03,5.43,2.44,1.12.94,2.37,1.99,4.08,2.69-.58,1.16-.89,2.45-.89,3.76v.9h-2.04v2.2h2.04v5.73Z"/>
    <path class="cls-8" d="M55.56,22.71c-.63-.22-1.34-.34-2.2-.34h0v5.41h2.21v-5.07Z"/>
    <path class="cls-8" d="M51.15,46.7c.71.38,1.45.85,2.21,1.49v-7.23h-2.21v5.75Z"/>
    <path class="cls-7" d="M53.35,21.97c2.67,0,4,1.12,5.69,2.54,1.21,1.01,2.52,2.12,4.39,2.78-.68,1.2-1.05,2.56-1.05,3.98v.9h1.57v-.9c0-2,.92-3.8,2.35-4.98-3.05-.22-4.72-1.69-6.4-3.11-1.69-1.42-3.4-2.78-6.54-2.78h0v1.57h0"/>
    <path class="cls-7" d="M44.33,31.26c0-1.42-.37-2.78-1.05-3.98,1.87-.66,3.19-1.77,4.39-2.78,1.15-.96,2.13-1.79,3.48-2.22v-1.63c-4.32,1.08-5.44,5.24-10.74,5.62.72.59,1.31,1.33,1.72,2.18.41.85.64,1.8.64,2.8v3.1h1.57v-3.1Z"/>
    <path class="cls-7" d="M48.8,46.08c-1.54-.62-2.65-1.07-3.55-2.57-.6-1.01-.92-2.19-.92-3.41v-3.53h-1.57v3.53c0,1.48.38,2.95,1.15,4.22,2.31,3.83,5.82,2.44,9.44,6.63v-2.24c-1.63-1.45-3.22-2.1-4.55-2.64"/>
    <path class="cls-7" d="M62.38,40.1c0,1.23-.32,2.41-.92,3.41-.9,1.5-2.01,1.95-3.55,2.57-.72.29-1.51.61-2.35,1.08v1.84c1.04-.7,2.06-1.1,3.01-1.49,1.62-.66,3.08-1.27,4.23-3.18.77-1.27,1.15-2.74,1.15-4.22v-5.73h-1.57v5.73Z"/>
    <rect class="cls-9" x="23.1" y="17.28" width="1.12" height="5.3"/>
    <path class="cls-9" d="M5.69,20.01s-.04-.12,0-.17c.21-.28.32-.61.32-.96,0-.88-.72-1.6-1.6-1.6H.29v5.3h4.11c.88,0,1.6-.72,1.6-1.6,0-.35-.11-.68-.32-.96M4.4,20.49c.27,0,.49.22.49.49s-.22.49-.49.49H1.54c-.08,0-.14-.06-.14-.14v-2.79c0-.08.06-.14.14-.14h2.86c.27,0,.49.22.49.49s-.22.49-.49.49H1.96v1.12h2.44Z"/>
    <path class="cls-9" d="M24.78,17.28v5.3h3.98v-1.11h-2.72c-.08,0-.14-.06-.14-.14v-4.04h-1.12Z"/>
    <path class="cls-9" d="M21.08,19.37h-2.51c-.27,0-.49-.22-.49-.49s.22-.49.49-.49h3.56v-1.12h-3.56c-.89,0-1.6.72-1.6,1.6s.72,1.6,1.6,1.6h2.51c.27,0,.49.22.49.49s-.22.49-.49.49h-3.3s-.1-.03-.12-.07l-2.01-3.49s-.03-.05-.04-.07c0,0,0-.01-.02-.02,0-.01-.02-.03-.03-.04,0,0-.01-.02-.02-.02,0-.01-.02-.02-.03-.04,0,0-.01-.02-.02-.02-.01-.01-.02-.02-.03-.03,0,0-.02-.02-.02-.02-.01,0-.02-.02-.03-.03,0,0-.02-.01-.02-.02-.01-.01-.03-.02-.04-.03,0,0-.01-.01-.02-.02-.02-.02-.04-.03-.06-.04-.2-.14-.44-.21-.7-.21-.06,0-.12,0-.18.01-.19.03-.36.09-.52.2-.02.01-.04.03-.06.04,0,0-.01.01-.02.02-.01,0-.03.02-.04.03,0,0-.01.01-.02.02-.01,0-.02.02-.03.03,0,0-.02.02-.02.02-.01.01-.02.02-.03.03,0,0-.01.01-.02.02-.01.01-.02.02-.03.04,0,0-.01.02-.02.02-.01.01-.02.03-.03.04,0,0-.01.01-.01.02-.01.02-.03.05-.04.07l-2.01,3.49s-.07.07-.12.07-.1-.03-.12-.07l-.43-.74s-.02-.09,0-.13c.02-.04.06-.07.1-.08.73-.16,1.27-.82,1.27-1.57,0-.89-.72-1.6-1.6-1.6h-4.12v5.3h1.12v-4.05c0-.08.06-.14.14-.14h2.86c.27,0,.49.22.49.49s-.22.49-.49.49h-2.44v1.12h1.22s.1.03.12.07l1.17,2.02h1.45l2.36-4.08.02-.03s.07-.07.12-.07.1.03.12.07l1.01,1.74s.02.1,0,.14c-.03.04-.07.07-.12.07h-1.61l-.64,1.12h3.06s.1.03.12.07l.56.98h4.03c.88,0,1.6-.72,1.6-1.6s-.72-1.6-1.6-1.6"/>
    <rect class="cls-9" x=".28" y="23.76" width="28.47" height="19.92"/>
    <polygon class="cls-15" points="2.7 33.74 14.52 26.17 26.33 33.74 14.52 41.28 2.7 33.74"/>
    <path class="cls-10" d="M14.51,38.71c-1.33,0-2.58-.52-3.52-1.46-.94-.94-1.46-2.2-1.46-3.54,0-2.75,2.23-4.98,4.98-4.98,1.34,0,2.59.52,3.54,1.46.94.94,1.46,2.19,1.46,3.52s-.52,2.6-1.46,3.54c-.94.94-2.2,1.46-3.54,1.46"/>
    <path class="cls-16" d="M14.44,32.65c2.91.71,4.74,2.49,4.83,2.58.08-.27.15-.55.19-.83-2.1-1.75-4.81-2.81-7.75-2.79-.62,0-1.2.04-1.78.12-.1.24-.19.49-.26.75.14-.03,2.21-.45,4.76.17"/>
    <path class="cls-14" d="M23.4,45.44c-2.15,0-3.92,1.66-4.09,3.77.24.02.46.06.68.11.11-1.78,1.59-3.2,3.4-3.2s3.41,1.53,3.41,3.41-1.53,3.41-3.41,3.41c-.12,0-.23,0-.34-.02-.25-.02-.48-.08-.71-.15-1.21-.39-2.12-1.44-2.31-2.73-.23-.07-.47-.13-.71-.15.15,1.75,1.4,3.18,3.06,3.6.22.06.45.09.68.11.11.01.23.02.34.02,2.26,0,4.1-1.83,4.1-4.09s-1.83-4.09-4.1-4.09"/>
    <path class="cls-11" d="M9.73,49.23c-.16-2.12-1.93-3.78-4.09-3.78s-4.1,1.83-4.1,4.09,1.84,4.09,4.1,4.09c.12,0,.24,0,.36-.02,0-.1-.01-.2-.01-.31,0-.13,0-.25.02-.38-.12.01-.24.02-.37.02-1.88,0-3.41-1.53-3.41-3.41s1.53-3.41,3.41-3.41,3.31,1.42,3.41,3.22c0,.06,0,.13,0,.19,0,.18-.02.36-.05.53-.2,1.27-1.1,2.3-2.29,2.7-.03.18-.05.35-.05.53,0,.07,0,.13.01.19,1.64-.43,2.88-1.85,3.04-3.58.01-.12.02-.25.02-.38,0-.1,0-.21-.01-.31"/>
    <path class="cls-13" d="M10.09,49.89c.12,0,.23,0,.35.02.24.02.48.08.71.15,1.21.39,2.12,1.44,2.31,2.73.23.07.47.12.71.15-.15-1.74-1.4-3.17-3.06-3.6-.22-.06-.45-.1-.68-.11-.11,0-.23-.02-.34-.02-.12,0-.24,0-.36.02,0,.1.01.21.01.31,0,.13,0,.25-.02.38.12-.01.24-.02.37-.02"/>
    <path class="cls-13" d="M13.49,53.51c-.11,1.78-1.59,3.2-3.4,3.2s-3.3-1.43-3.4-3.22c0-.06,0-.13,0-.19,0-.18.02-.36.05-.53.2-1.27,1.1-2.3,2.29-2.7.03-.17.05-.35.05-.53,0-.07,0-.13,0-.19-1.64.43-2.88,1.85-3.04,3.58,0,.12-.02.25-.02.38,0,.11,0,.21.01.31.16,2.12,1.93,3.79,4.09,3.79s3.92-1.66,4.09-3.77c-.23-.02-.46-.06-.68-.11"/>
    <path class="cls-4" d="M14.52,52.96c-.12,0-.23,0-.34-.02-.24-.03-.48-.08-.71-.15-1.21-.39-2.12-1.44-2.31-2.72-.23-.07-.47-.13-.71-.15.15,1.75,1.4,3.18,3.06,3.6.22.05.45.09.68.11.11,0,.23.01.34.01.12,0,.25,0,.37-.01,0-.11-.02-.22-.02-.33,0-.12,0-.24.02-.36-.12.01-.25.02-.37.02"/>
    <path class="cls-4" d="M18.6,49.22c-.17-2.11-1.93-3.76-4.08-3.76s-3.92,1.66-4.09,3.77c.23.02.46.06.68.11.11-1.79,1.59-3.2,3.4-3.2s3.29,1.41,3.4,3.2c0,.07.01.14.01.21,0,.17-.02.35-.04.51-.19,1.28-1.09,2.32-2.29,2.72-.03.17-.04.34-.04.51,0,.07,0,.14,0,.21,1.65-.43,2.88-1.86,3.03-3.6.01-.12.02-.24.02-.36s0-.22-.02-.33"/>
    <path class="cls-3" d="M18.97,49.88c.11,0,.23,0,.34.02.25.02.48.08.71.15,1.21.39,2.12,1.44,2.31,2.73.23.07.47.13.71.15-.15-1.75-1.4-3.18-3.06-3.6-.22-.06-.45-.1-.68-.11-.11,0-.23-.02-.34-.02-.12,0-.25,0-.37.02,0,.11.02.22.02.33,0,.12,0,.24-.02.36.12-.01.25-.02.37-.02"/>
    <path class="cls-3" d="M22.37,53.5c-.11,1.78-1.59,3.2-3.4,3.2s-3.29-1.42-3.4-3.2c0-.07-.01-.14-.01-.21,0-.18.02-.35.04-.51.19-1.28,1.09-2.32,2.29-2.72.03-.17.04-.34.04-.51,0-.07,0-.14-.01-.21-1.64.43-2.88,1.86-3.03,3.6-.01.12-.02.24-.02.36,0,.11,0,.22.01.33.17,2.1,1.93,3.76,4.08,3.76s3.92-1.66,4.08-3.77c-.23-.02-.46-.06-.68-.11"/>
    <path class="cls-9" d="M1.92,16.12s-.06.08-.11.12c-.05.04-.1.08-.16.12-.06.04-.13.07-.21.09-.08.02-.16.03-.24.03-.13,0-.25-.02-.36-.07-.11-.05-.2-.11-.28-.19-.08-.08-.14-.18-.19-.29-.04-.11-.07-.23-.07-.37s.02-.25.07-.36c.04-.11.11-.21.19-.3.08-.08.18-.15.29-.2.11-.05.23-.07.37-.07.09,0,.17,0,.24.03.07.02.14.04.2.08.06.03.11.07.16.11s.09.09.12.14l-.24.21c-.06-.08-.12-.15-.2-.2-.08-.05-.17-.07-.28-.07-.09,0-.16.02-.23.05-.07.03-.13.08-.18.14-.05.06-.09.12-.11.2-.03.08-.04.16-.04.24s.01.16.04.24c.03.08.06.14.11.19.05.06.11.1.17.13.07.03.14.05.22.05.08,0,.14,0,.19-.03.05-.02.1-.04.14-.07.04-.03.07-.06.1-.08.02-.03.05-.05.07-.08l.23.2Z"/>
    <path class="cls-9" d="M2.91,16.49c-.13,0-.25-.02-.36-.07-.11-.05-.21-.12-.29-.2-.08-.08-.15-.18-.2-.3-.05-.11-.07-.23-.07-.36s.02-.25.07-.36c.05-.11.11-.21.19-.3.08-.08.18-.15.29-.2.11-.05.23-.07.36-.07s.25.02.36.07c.11.05.21.11.29.2.08.08.15.18.2.3.05.11.07.23.07.36s-.02.25-.07.36c-.05.11-.11.21-.2.3-.08.08-.18.15-.29.2-.11.05-.23.07-.36.07M2.91,16.17c.09,0,.16-.02.24-.05.07-.03.13-.08.18-.14.05-.06.09-.12.11-.2.03-.08.04-.15.04-.24s-.01-.17-.04-.24c-.03-.07-.07-.14-.11-.2-.05-.06-.11-.1-.18-.13-.07-.03-.15-.05-.24-.05s-.17.02-.24.05-.13.08-.18.13c-.05.06-.09.12-.11.2-.03.08-.04.16-.04.24s.01.16.04.24c.03.08.07.14.11.2.05.06.11.1.18.14.07.03.15.05.24.05"/>
    <polygon class="cls-9" points="4.12 14.67 4.43 14.67 4.93 15.51 5.41 14.67 5.72 14.67 5.8 16.44 5.48 16.44 5.42 15.22 4.99 15.94 4.84 15.94 4.41 15.24 4.35 16.44 4.04 16.44 4.12 14.67"/>
    <rect class="cls-9" x="6.09" y="14.67" width=".33" height="1.77"/>
    <polygon class="cls-9" points="7.2 14.97 6.6 14.97 6.6 14.67 8.13 14.67 8.13 14.97 7.53 14.97 7.53 16.44 7.2 16.44 7.2 14.97"/>
    <path class="cls-9" d="M8.31,14.67h1.14v.29h-.81v.42h.6v.3h-.6v.46h.87v.3h-1.2v-1.77ZM8.73,14.13h.29l.29.41h-.28l-.16-.22-.16.22h-.28l.29-.41Z"/>
    <path class="cls-9" d="M11.01,16.49c-.13,0-.25-.02-.36-.07-.11-.05-.21-.12-.29-.2-.08-.08-.15-.18-.2-.3-.05-.11-.07-.23-.07-.36s.02-.25.07-.36c.05-.11.11-.21.19-.3.08-.08.18-.15.29-.2.11-.05.23-.07.36-.07s.25.02.36.07c.11.05.21.11.29.2.08.08.15.18.2.3.05.11.07.23.07.36s-.02.25-.07.36c-.05.11-.11.21-.2.3-.08.08-.18.15-.29.2-.11.05-.23.07-.36.07M11.01,16.17c.09,0,.16-.02.24-.05.07-.03.13-.08.18-.14.05-.06.09-.12.11-.2.03-.08.04-.15.04-.24s-.01-.17-.04-.24c-.03-.07-.06-.14-.11-.2-.05-.06-.11-.1-.18-.13-.07-.03-.15-.05-.24-.05s-.17.02-.24.05c-.07.03-.13.08-.18.13-.05.06-.09.12-.11.2-.03.08-.04.16-.04.24s.01.16.04.24c.03.08.06.14.11.2.05.06.11.1.18.14.07.03.15.05.24.05"/>
    <polygon class="cls-9" points="12.17 14.67 12.5 14.67 12.5 16.14 13.37 16.14 13.37 16.44 12.17 16.44 12.17 14.67"/>
    <path class="cls-9" d="M13.76,14.13h.39l-.3.41h-.28l.19-.41ZM13.57,14.67h.33v1.77h-.33v-1.77Z"/>
    <polygon class="cls-9" points="14.27 14.67 14.58 14.67 15.07 15.51 15.55 14.67 15.86 14.67 15.94 16.44 15.62 16.44 15.56 15.22 15.14 15.94 14.98 15.94 14.55 15.24 14.5 16.44 14.18 16.44 14.27 14.67"/>
    <path class="cls-9" d="M16.23,14.67h.57c.12,0,.23.02.3.06.08.04.14.08.19.14.05.06.08.12.1.18.02.06.03.12.03.17,0,.1-.02.18-.05.25-.03.07-.08.13-.14.17-.06.04-.12.08-.19.1-.07.02-.14.03-.21.03h-.27v.66h-.32v-1.77ZM16.79,15.5c.08,0,.15-.03.2-.07.05-.05.08-.11.08-.19,0-.08-.03-.15-.08-.2-.05-.05-.12-.08-.2-.08h-.24v.55h.24Z"/>
    <rect class="cls-9" x="17.64" y="14.67" width=".33" height="1.77"/>
    <path class="cls-9" d="M19.83,16.12s-.06.08-.11.12c-.05.04-.1.08-.16.12-.06.04-.13.07-.21.09-.08.02-.16.03-.24.03-.13,0-.25-.02-.36-.07-.11-.05-.2-.11-.28-.19-.08-.08-.14-.18-.19-.29-.04-.11-.07-.23-.07-.37s.02-.25.07-.36c.05-.11.11-.21.19-.3.08-.08.18-.15.29-.2.11-.05.23-.07.37-.07.09,0,.17,0,.24.03.07.02.14.04.2.08.06.03.11.07.16.11s.09.09.12.14l-.24.21c-.06-.08-.12-.15-.2-.2-.07-.05-.17-.07-.28-.07-.09,0-.16.02-.23.05-.07.03-.13.08-.18.14-.05.06-.09.12-.11.2-.02.08-.04.16-.04.24s.01.16.04.24c.03.08.06.14.11.19.05.06.1.1.17.13.07.03.14.05.22.05.08,0,.14,0,.2-.03.05-.02.1-.04.14-.07.04-.03.07-.06.1-.08.02-.03.05-.05.07-.08l.23.2Z"/>
    <path class="cls-9" d="M20.82,16.49c-.13,0-.25-.02-.36-.07-.11-.05-.21-.12-.29-.2-.08-.08-.15-.18-.2-.3-.05-.11-.07-.23-.07-.36s.02-.25.07-.36c.05-.11.11-.21.19-.3.08-.08.18-.15.29-.2.11-.05.23-.07.36-.07s.25.02.36.07c.11.05.21.11.29.2.08.08.15.18.2.3.05.11.07.23.07.36s-.02.25-.07.36c-.05.11-.11.21-.2.3-.08.08-.18.15-.29.2-.11.05-.23.07-.36.07M20.82,16.17c.09,0,.17-.02.24-.05.07-.03.13-.08.18-.14.05-.06.09-.12.11-.2.03-.08.04-.15.04-.24s-.01-.17-.04-.24c-.03-.07-.07-.14-.11-.2-.05-.06-.11-.1-.18-.13-.07-.03-.15-.05-.24-.05s-.17.02-.24.05-.13.08-.18.13c-.05.06-.09.12-.11.2-.03.08-.04.16-.04.24s.01.16.04.24c.03.08.07.14.11.2.05.06.11.1.18.14.07.03.15.05.24.05"/>
    <path class="cls-9" d="M22.38,14.67h.66c.14,0,.26.02.38.05.11.03.21.09.3.16.08.07.15.17.19.28.05.11.07.25.07.4,0,.15-.02.27-.07.38-.05.11-.11.2-.2.27-.08.07-.18.13-.3.16-.11.04-.24.06-.38.06h-.66v-1.77ZM23.01,16.14c.2,0,.35-.05.46-.15.11-.1.16-.24.16-.43s-.05-.33-.15-.44c-.1-.11-.26-.16-.47-.16h-.29v1.17h.29Z"/>
    <path class="cls-9" d="M25.02,16.49c-.13,0-.25-.02-.36-.07-.11-.05-.21-.12-.29-.2-.08-.08-.15-.18-.2-.3-.05-.11-.07-.23-.07-.36s.02-.25.07-.36c.05-.11.11-.21.19-.3.08-.08.18-.15.29-.2.11-.05.23-.07.36-.07s.25.02.36.07c.11.05.21.11.29.2.08.08.15.18.2.3.05.11.07.23.07.36s-.02.25-.07.36c-.05.11-.11.21-.2.3-.08.08-.18.15-.29.2-.11.05-.23.07-.36.07M25.02,16.17c.09,0,.17-.02.24-.05.07-.03.13-.08.18-.14.05-.06.09-.12.11-.2.03-.08.04-.15.04-.24s-.01-.17-.04-.24c-.03-.07-.07-.14-.11-.2-.05-.06-.11-.1-.18-.13-.07-.03-.15-.05-.24-.05s-.17.02-.24.05-.13.08-.18.13c-.05.06-.09.12-.11.2-.03.08-.04.16-.04.24s.01.16.04.24c.03.08.07.14.11.2.05.06.11.1.18.14.07.03.15.05.24.05"/>
    <rect class="cls-12" x="34.37" y="14.13" width=".41" height="43.27"/>
  </g>
</svg>